<?xml version="1.0" encoding="UTF-8" standalone="no"?>
<!-- Created with Inkscape (http://www.inkscape.org/) -->

<svg
   width="968.93085"
   height="620.7301"
   viewBox="0 0 256.36295 164.23484"
   version="1.1"
   id="svg5"
   xml:space="preserve"
   inkscape:version="1.2 (dc2aedaf03, 2022-05-15)"
   sodipodi:docname="portfolio2.svg"
   inkscape:export-filename="portfolio.png"
   inkscape:export-xdpi="96"
   inkscape:export-ydpi="96"
   xmlns:inkscape="http://www.inkscape.org/namespaces/inkscape"
   xmlns:sodipodi="http://sodipodi.sourceforge.net/DTD/sodipodi-0.dtd"
   xmlns="http://www.w3.org/2000/svg"
   xmlns:svg="http://www.w3.org/2000/svg"><sodipodi:namedview
     id="namedview7"
     pagecolor="#efefef"
     bordercolor="#000000"
     borderopacity="0.25"
     inkscape:showpageshadow="2"
     inkscape:pageopacity="1"
     inkscape:pagecheckerboard="0"
     inkscape:deskcolor="#d1d1d1"
     inkscape:document-units="mm"
     showgrid="false"
     inkscape:zoom="1"
     inkscape:cx="976.5"
     inkscape:cy="456.5"
     inkscape:window-width="1920"
     inkscape:window-height="1111"
     inkscape:window-x="-9"
     inkscape:window-y="-9"
     inkscape:window-maximized="1"
     inkscape:current-layer="svg5" /><defs
     id="defs2"><linearGradient
       id="linearGradient60825"
       inkscape:swatch="solid"><stop
         style="stop-color:#ffffff;stop-opacity:1;"
         offset="0"
         id="stop60823" /></linearGradient></defs><style
     id="style9077">
		tspan { white-space:pre }
		.shp0 { fill: #4c4c4c } 
		.shp1 { fill: #000000 } 
		.shp2 { fill: #808080 } 
	</style><g
     id="g56894"
     inkscape:label="Header"
     style="display:inline"
     inkscape:highlight-color="#df78bd"
     transform="translate(-100.19279,-13.14612)"
     inkscape:groupmode="layer"><g
       id="g18553"
       inkscape:label="Art2"
       transform="matrix(1.2516092,0,0,1.2516092,-191.77083,-27.028066)"
       style="display:inline"><path
         id="path23620"
         style="display:inline;opacity:1;fill:#c36e85;fill-opacity:1;stroke:none;stroke-width:0.217621;stroke-linecap:round;stroke-linejoin:round;stroke-dasharray:none;stroke-opacity:1;paint-order:stroke fill markers"
         d="m 364.088,-155.45674 c -0.10033,-0.24101 -0.71705,-0.37129 -0.93486,-0.18749 -0.2178,0.1838 -0.16692,0.79008 0.25967,0.70378 0.42659,-0.0863 0.7755,-0.27529 0.67519,-0.51629 z m -1.86842,-2.08988 c -3.2e-4,0.41439 0.91091,1.6122 2.0348,1.61214 1.12365,-8e-5 2.03374,-0.78857 2.02055,-1.63432 -0.007,-0.46188 -0.51714,-0.83896 -1.19897,-0.91829 -0.68183,-0.0793 -2.85572,0.0752 -2.85638,0.94047 z M 280.8303,-17.481763 c -0.19836,0.125043 -0.37789,0.2548 -0.53745,0.389048 -5.10611,4.295822 -6.28261,29.48104 6.70507,28.910367 12.98763,-0.570674 23.88356,-22.250839 23.9901,-27.519585 0.10218,-5.104169 -24.0085,-5.655924 -30.15772,-1.77983 z"
         transform="rotate(31.867307)"
         inkscape:label="Stains"
         sodipodi:nodetypes="zzzzssszsscscs" /><path
         id="path27475"
         style="display:inline;opacity:1;fill:#000000;fill-opacity:0.0785715;stroke:none;stroke-width:0.3;stroke-linecap:round;stroke-linejoin:round;stroke-dasharray:none;stroke-opacity:1;paint-order:stroke fill markers"
         inkscape:label="Shadows"
         d="m 311.53757,17.108517 c -1.7342,-0.0075 -4.44892,1.207391 -4.27209,3.17345 0.22634,2.516555 10.71775,7.129871 10.30428,4.108793 -0.41347,-3.021078 -5.28547,-3.214569 -5.67355,-4.434872 -0.38808,-1.220302 1.91109,-1.609684 0.78238,-2.542997 -0.24691,-0.204162 -0.65544,-0.302277 -1.14102,-0.304374 z m 24.89151,36.97397 c -0.45661,-0.0025 -0.8953,0.109627 -1.3069,0.365353 -1.12698,0.700186 -2.96581,2.62144 -2.14354,4.894275 0.46385,1.28212 5.95139,1.581539 9.14142,4.901854 1.4923,1.553245 -3.38853,14.275526 -4.28487,14.270619 -3.61377,-0.01978 0.79825,-10.19372 0.7953,-13.033313 -0.004,-3.671193 -3.78127,15.012893 -14.5929,15.715319 3.30417,0.61522 8.54838,0.796225 11.34659,0.112655 0.19317,-0.04719 -11.14805,3.018267 -11.69076,4.468461 -0.85989,2.297742 18.83214,2.817381 21.62504,-0.535885 1.8133,-2.177147 0.33844,-13.744712 -1.38545,-18.644339 -0.143,-0.406417 3.66974,-3.444721 2.9869,-4.835881 -0.71593,-1.458568 -5.40328,-7.651281 -10.49083,-7.679118 z m -10.07381,3.794601 c -0.21115,-1.3e-4 -0.42171,0.01187 -0.62838,0.03617 -2.20455,0.259192 -5.07358,7.826605 -3.78065,8.092013 1.29292,0.265404 5.18351,-4.289448 6.92929,-5.727299 1.58212,-1.303056 -0.47906,-2.399633 -2.52026,-2.400887 z m -20.32537,17.48317 c -2.89774,-0.02654 -7.24518,2.009744 -8.79171,4.112927 -1.97956,2.692075 -3.85377,4.845516 -2.85823,7.970573 0.99554,3.125057 10.55883,0.605837 15.34635,0.636137 4.78754,0.03031 0.54644,-10.455606 -1.69705,-12.168249 -0.49076,-0.374641 -1.18799,-0.543958 -1.99936,-0.551388 z m 14.76396,15.637288 c -2.98704,0.01018 -5.52816,0.161438 -6.36396,0.621668 5.33279,0.277638 13.09305,1.953035 11.64787,2.36368 -6.81766,1.937217 -10.06932,9.847226 -10.77712,12.455056 -1.56441,5.76394 11.98696,15.78586 19.13268,22.67872 -22.94736,-34.322413 13.02061,-25.80873 1.5875,-37.570837 -0.67285,-0.480768 -1.61845,-0.209217 -2.41019,-0.203088 -1.62179,0.01256 -7.83838,-0.362165 -12.81678,-0.345199 z"
         transform="matrix(0.79897144,0,0,0.79897144,148.07724,32.798564)"
         sodipodi:nodetypes="sssssssssssccsssssssssssssssssscssccss" /><path
         id="path19921"
         style="display:inline;opacity:1;fill:none;fill-opacity:1;stroke:#3a3a3a;stroke-width:0.239691;stroke-linecap:round;stroke-linejoin:round;stroke-dasharray:none;stroke-opacity:1;paint-order:stroke fill markers"
         d="M 394.09139,32.217873 V 46.21147 c -1.2192,-0.01946 -3.06457,0.08472 -3.8117,0.580558 0,0 1.41205,1.508386 1.42005,2.316917 8.2e-4,0.08293 1.61421,-0.224784 4.01958,0.02275 -3.31295,-0.02307 -4.33392,0.321348 -4.76379,0.47064 -1.18663,0.412111 -5.77565,1.835963 -6.95394,7.055271 2.52255,0.105952 4.20429,0.162398 6.72684,0.180456 0.61027,0.0044 2.06136,0.0065 2.67162,0.0065 0.43592,2.4e-5 -2.32328,0.03628 -1.88736,0.03427 -0.34508,0.372497 -0.48701,3.108517 2.39382,3.108517 2.6753,0 2.53027,-2.779204 2.03457,-3.154286 2.77162,-0.02427 5.54324,-0.08821 8.31486,-0.175462 -1.82328,-6.703757 -7.60451,-7.068121 -7.62342,-7.548665 -0.0189,-0.480544 1.42006,-2.541135 1.42006,-2.541135 -0.66406,-0.19259 -1.98377,-0.334884 -3.28853,-0.35634 m 12.34382,41.595583 c -0.5837,2.624924 -0.99813,8.042085 -0.44783,9.522919 m -4.74848,32.441317 -1.21579,9.20527 0.65132,0.0434 1.30263,-7.59869 m 7.81753,-8.30051 0.61407,-9.21099 -3.74581,-0.36844 -1.04391,0.30703 c 0,0 5.77223,14.00072 5.58801,14.61478 -0.18422,0.61407 -0.36844,0.9211 -0.36844,0.9211 0,0 3.03998,1.8697 3.71345,2.18608 0.64651,-0.0857 1.6519,0.62224 1.81314,0.88425 0.49126,0.79829 -1.56587,4.6055 -1.75009,5.5266 -0.18422,0.9211 -0.33545,2.96056 -0.99785,3.83792 -0.64755,0.85768 -2.84006,1.9343 -4.06819,1.99571 m 6.07925,-12.58836 -1.96501,-17.31667 -1.65798,0.0614 -1.16672,11.72867 m 13.66501,-19.58872 c 0,0 -1.25629,5.93455 -3.71714,6.32489 l 4.42128,26.65048 h -0.49125 l -5.34238,-25.97501 -4.11424,0.73688 2.21063,26.34345 -0.55266,0.12281 -0.67547,-5.588 m 6.37662,-46.787201 c 0,0 5.20204,-0.206929 4.89344,3.377415 -0.30859,3.584345 -2.30503,11.489986 -2.30503,11.489986 m -26.4,3.08289 c 0,0 -3.6145,1.31688 -4.34211,1.65 -0.7276,0.33312 -2.0512,2.58139 -1.0421,5.12369 1.0091,2.5423 10.49736,21.18947 10.49736,21.18947 1.82524,0.0223 3.65048,0.64279 4.64673,2.79093 -1.21933,-1.65293 -3.05392,-2.69381 -5.23973,-2.61288 1.08012,-0.0635 2.61889,4.67713 1.64564,5.85748 -1.40207,1.70041 -4.86316,2.34473 -5.21053,3.21315 -0.34737,0.86843 -0.20572,1.5278 -0.0434,2.10593 0.16207,0.57728 6.70856,2.21447 8.27171,0.39079 1.56316,-1.82368 1.16305,-2.76694 1.67171,-3.75592 0.5184,-1.00792 3.12632,-3.82106 3.12632,-3.82106 0,0 0.22516,-0.72185 -0.0651,-1.19408 -0.29029,-0.47223 -1.15057,-0.26319 -1.84539,-1.06381 -0.56861,-0.65519 -2.52115,-2.26342 -2.34473,-3.82105 l -0.43422,0.43421 -3.99473,-18.93158 c 0,0 18.49736,-1.04211 17.10789,-7.46842 -3.69222,3.39874 -9.46579,-0.0868 -9.46579,-0.0868 m 22.48759,-2.60334 -26.7733,0.12281 -0.24562,-0.73688 h -9.70225 L 394.2559,91.741963 h -15.47447 l 3.91973,11.642797 4.22579,0.017 -4.54116,0.007 -3.60436,-0.12281 v 2.21064 h 6.14066 l -7.98286,41.38807 h 1.71938 l 8.3513,-41.51089 h 40.77402 l 8.10567,41.75652 h 2.08783 l -7.98287,-41.87933 h 5.03535 z M 397.66397,86.061849 c 0,0 0.12281,-1.504463 -1.16673,-1.842199 -0.86618,-1.716356 -1.44306,-1.657979 -1.44306,-1.657979 -0.34414,0.16833 0.60349,1.228462 0.22578,1.510048 l -0.9825,-0.40473 c -0.0333,-0.841386 0.17185,-2.530308 -0.25494,-2.528527 -0.15527,0.530442 -0.23462,1.21272 -0.4928,1.537347 -0.48058,-0.4125 -0.88939,-2.734814 -1.48679,-2.67337 0.0156,0.32456 0.24848,1.369755 0.0437,1.392504 0,0 -1.06542,-1.318414 -1.42353,-0.926367 0.15043,0.41931 2.31392,4.08881 2.74377,4.395843 0.42984,0.307033 1.9343,0.491254 2.42556,1.535165 m 10.2058,12.477619 -4.47237,-0.67302 -2.25789,2.909207 c 0.25586,0.10716 0.48869,0.0647 0.69473,-0.15198 0,0 -0.22022,0.36147 -0.35369,0.57658 0.28695,0.25248 0.76228,0.0282 0.94922,-0.27013 0.18695,-0.29837 1.22816,-1.370257 1.22816,-1.370257 l -0.64554,1.864877 c 0,0 0.57568,0.11943 0.80502,-0.40742 0.22934,-0.52684 0.75233,-1.00157 0.75233,-1.00157 v 1.73684 c 0.30705,0.0682 0.5561,-0.17972 0.62106,-0.6658 0.065,-0.48608 0.36525,-0.87512 0.36525,-0.87512 0,0 1.85777,0.88961 2.57421,0.36855 m 3.36517,-24.294072 2.80065,-0.08684 c 0,0 -0.506,1.119315 -1.58486,1.085526 -1.04576,-0.03275 -0.97616,-0.817051 -1.21579,-0.998685 z m 0.5684,-1.277527 c -0.61653,0.08387 -0.18545,0.890038 0.53731,0.560334 M 410.7207,69.8344 c -0.36685,0.861242 -1.20175,1.890216 -2.51315,2.143437 0,0 -0.21365,0.981312 -0.18377,1.476314 0.0261,0.431807 0.31403,1.259211 0.31403,1.259211 -0.1304,0.825841 -0.46239,4.841082 3.43027,4.559211 3.07758,-0.222851 3.83421,-3.179821 3.83421,-3.179821 0,0 2.48503,-0.166191 1.7671,-2.16097 -0.31018,-0.861843 -1.42281,0.03815 -1.42281,0.03815 -3.81438,-0.319889 -4.77184,-2.62762 -5.22588,-4.135537 z m 12.0329,15.821066 c 1.73386,-1.579371 1.6233,-3.211439 -0.69473,-4.906578 0.94481,-3.864711 -5.28673,-2.086076 -3.78657,-4.252629 2.51937,-3.638504 -2.16113,-11.882749 -7.67659,-8.078949 -3.66621,-0.582442 -5.03144,4.454043 -3.66749,5.965956 -1.38694,1.133502 -1.91144,3.121505 -0.86048,4.530992 1.46558,1.965554 -3.6187,2.116144 -4.54041,5.345904 -0.60321,2.113725 0.18154,3.456099 2.25897,4.14049 m 14.71204,-3.526725 c -0.84441,3.963819 -1.38556,7.844858 -1.08553,12.266456 l 2.64869,0.41249 c -4.32587,-0.57029 -8.81448,0.28802 -10.07369,0.78158 -0.99069,-0.16722 -1.80025,-0.51556 -3.56052,0.0868 l 0.17368,2.778947 c 0.0995,0.56414 1.00043,0.50612 2.95263,0.69474 4.09513,2.32019 11.41566,1.12199 13.1783,-1.04211 1.55215,-1.905667 1.06538,-12.522853 -1.19409,-16.499995 -1.38827,-2.443649 -6.64341,-3.734208 -6.64341,-3.734208 1.28988,1.065945 -5.80293,1.765538 -3.68212,0.03473 -0.0262,-0.122698 -0.2236,-0.8391 -0.2236,-0.8391 0,0 0.17679,0.747888 0.0865,0.790167 -5.00186,1.265346 -7.86965,9.844279 -8.24036,11.390582 l 1.61456,4.106793 c -1.36927,-2.714653 -2.04505,-5.482651 -5.40378,-8.044268 0,0 -0.45471,-1.711548 -0.82899,-1.780792 -0.37428,-0.06924 -2.78036,0.234903 -2.88611,0.675473 -0.10576,0.44057 0.18422,2.015957 0.46055,2.302749 -0.28206,1.647745 0.40848,6.826368 4.97394,9.610138"
         sodipodi:nodetypes="cccscscsscsccsccccccccccccsccssscccccccccccccccsccsscccssssscssccccccccccccccccccccccccccccccccccccscccccczcczcczccccsccccscscscscssccsccssccccccccsscccccccsscc"
         inkscape:label="LineArt"
         inkscape:export-filename="..\WebstormProjects\Portfolio\images\art.svg"
         inkscape:export-xdpi="96"
         inkscape:export-ydpi="96" /><path
         id="path15480-7"
         style="display:inline;fill:#000000;fill-opacity:1;stroke:none;stroke-width:0.0989407;stroke-linecap:round;stroke-linejoin:round;stroke-dasharray:none;stroke-opacity:1;paint-order:stroke fill markers"
         d="m 411.77141,72.634912 c -0.33665,0.03264 -0.9348,0.160431 -0.85577,0.545186 0.18365,-0.04896 1.70292,-0.16997 1.93167,-0.12299 0.008,-0.254464 -0.69244,-0.45937 -1.0759,-0.422196 z m -3.71904,1.217359 c 0.23481,-0.04225 0.88577,-0.301747 1.5318,-0.397321 -0.0827,-0.357168 -0.41525,-0.323136 -0.65193,-0.294342 -0.37033,0.04505 -0.94002,0.452475 -0.87987,0.691663 z m 3.98052,-0.0102 c -0.23727,2.3e-4 -0.42949,0.192673 -0.42943,0.429948 2.3e-4,0.237073 0.19236,0.429201 0.42943,0.429431 0.23728,5.7e-5 0.42972,-0.192155 0.42995,-0.429431 6e-5,-0.237478 -0.19247,-0.430005 -0.42995,-0.429948 z m -2.88613,0.337447 c -0.23727,2.3e-4 -0.42949,0.192673 -0.42943,0.429948 -6e-5,0.237275 0.19216,0.429718 0.42943,0.429948 0.23748,5.7e-5 0.43001,-0.19247 0.42995,-0.429948 6e-5,-0.237478 -0.19247,-0.430005 -0.42995,-0.429948 z"
         sodipodi:nodetypes="accaccaccccccccccc"
         inkscape:label="Face" /></g></g><style
     id="style58337">
		tspan { white-space:pre }
		.shp0 { fill: #4c4c4c } 
		.shp1 { fill: #000000 } 
		.shp2 { fill: #808080 } 
	</style><style
     type="text/css"
     id="style73738"><![CDATA[
	.st0{fill-rule:evenodd;clip-rule:evenodd;}
]]></style></svg>
