<?xml version="1.0" encoding="UTF-8" standalone="no"?>
<!-- Created with Inkscape (http://www.inkscape.org/) -->

<svg
   width="49.392166"
   height="31.40925"
   viewBox="0 0 13.068344 8.310364"
   version="1.1"
   id="svg5"
   xml:space="preserve"
   inkscape:version="1.2 (dc2aedaf03, 2022-05-15)"
   sodipodi:docname="portfolio5.svg"
   inkscape:export-filename="portfolio.png"
   inkscape:export-xdpi="96"
   inkscape:export-ydpi="96"
   xmlns:inkscape="http://www.inkscape.org/namespaces/inkscape"
   xmlns:sodipodi="http://sodipodi.sourceforge.net/DTD/sodipodi-0.dtd"
   xmlns="http://www.w3.org/2000/svg"
   xmlns:svg="http://www.w3.org/2000/svg"><sodipodi:namedview
     id="namedview7"
     pagecolor="#efefef"
     bordercolor="#000000"
     borderopacity="0.25"
     inkscape:showpageshadow="2"
     inkscape:pageopacity="1"
     inkscape:pagecheckerboard="0"
     inkscape:deskcolor="#d1d1d1"
     inkscape:document-units="mm"
     showgrid="false"
     inkscape:zoom="16"
     inkscape:cx="981.46875"
     inkscape:cy="1540.5625"
     inkscape:window-width="1920"
     inkscape:window-height="1009"
     inkscape:window-x="1912"
     inkscape:window-y="-8"
     inkscape:window-maximized="1"
     inkscape:current-layer="g609" /><defs
     id="defs2"><inkscape:path-effect
       effect="offset"
       id="path-effect75538"
       is_visible="true"
       lpeversion="1.2"
       linejoin_type="miter"
       unit="mm"
       offset="-0.05"
       miter_limit="4"
       attempt_force_join="false"
       update_on_knot_move="true" /><linearGradient
       id="linearGradient60825"
       inkscape:swatch="solid"><stop
         style="stop-color:#ffffff;stop-opacity:1;"
         offset="0"
         id="stop60823" /></linearGradient></defs><style
     id="style9077">
		tspan { white-space:pre }
		.shp0 { fill: #4c4c4c } 
		.shp1 { fill: #000000 } 
		.shp2 { fill: #808080 } 
	</style><g
     id="g609"
     inkscape:label="Education"
     transform="translate(-242.30365,-244.12226)"
     style="display:inline"
     inkscape:groupmode="layer"><g
       id="g593"
       inkscape:label="Column 2"
       transform="translate(222.497,130.45824)"><path
         id="path75526"
         style="fill:#ffffff;fill-opacity:1;stroke-width:0.0207655"
         d="m 20.480469,113.66406 h 11.720703 c 0.382137,0 0.673851,0.29169 0.673828,0.67383 v 6.2832 c 0,0.38213 -0.291692,0.67383 -0.673828,0.67383 h -1.257813 v 0.47656 c 0,0.0557 -0.03781,0.13591 -0.09766,0.17579 -0.05586,0.0372 -0.132174,0.0364 -0.193359,-0.004 l -0.890625,-0.44727 -0.921875,0.46094 v 0.004 c -0.0064,7e-5 -0.01326,0 -0.02148,0 -0.03186,0 -0.06372,-0.0134 -0.0957,-0.0195 -0.05645,-0.0396 -0.0957,-0.0965 -0.0957,-0.16993 v -1.71679 c 0,-0.0983 0.05437,-0.17185 0.152344,-0.19141 l 0.5625,-0.12305 c 0.05185,-0.0173 0.10892,-0.002 0.167969,0.0371 l 0.298828,0.27344 0.302734,-0.27344 c 0.03528,-0.0353 0.110713,-0.0552 0.171875,-0.0352 l 0.382813,0.082 0.109375,-0.38086 c 0.01905,-0.0572 0.05762,-0.0953 0.111328,-0.11328 l 0.382812,-0.10938 -0.08398,-0.38867 c -0.01701,-0.051 -1.32e-4,-0.10818 0.03906,-0.16797 l 0.269532,-0.29883 -0.271485,-0.30273 c -0.03527,-0.0353 -0.05522,-0.1107 -0.03516,-0.17188 l 0.08203,-0.38281 -0.380859,-0.10937 c -0.05683,-0.019 -0.09299,-0.0565 -0.111328,-0.11133 l -0.111328,-0.38281 -0.388672,0.084 c -0.05105,0.017 -0.108205,1.9e-4 -0.167969,-0.0391 l -0.300781,-0.27344 -0.300782,0.27539 c -0.03526,0.0353 -0.110723,0.0552 -0.171874,0.0352 l -0.382813,-0.082 -0.109375,0.38086 c -0.01895,0.0568 -0.05641,0.093 -0.111328,0.11132 l -0.382813,0.11133 0.08398,0.38867 c 0.01701,0.051 2.53e-4,0.10805 -0.03906,0.16797 l -0.269531,0.30078 0.271484,0.30079 c 0.03526,0.0352 0.05518,0.11091 0.03516,0.17187 l -0.121094,0.55469 c -0.01877,0.0938 -0.113648,0.17377 -0.230469,0.1543 -0.09385,-0.0188 -0.174046,-0.11396 -0.154297,-0.23243 l 0.08398,-0.50781 -0.21875,-0.21094 -0.06836,-0.0684 c -0.05988,-0.0799 -0.05642,-0.19726 -0.002,-0.25195 l 0.306641,-0.35742 -0.101563,-0.45899 c -0.01906,-0.0952 0.03676,-0.1932 0.134766,-0.23242 l 0.4375,-0.15234 0.125,-0.40625 c 0.04008,-0.10018 0.138348,-0.15946 0.232422,-0.14063 l 0.46289,0.10352 0.326172,-0.30664 c 0.07982,-0.0599 0.197404,-0.0563 0.251953,-0.002 l 0.357422,0.30859 0.458985,-0.10352 c 0.09522,-0.0191 0.195003,0.0403 0.234375,0.13868 l 0.152343,0.43359 0.40625,0.12695 c 0.09998,0.04 0.157533,0.13811 0.138672,0.23242 l -0.101562,0.46094 0.304687,0.32813 c 0.05988,0.0799 0.05524,0.1986 0.002,0.25195 l -0.30664,0.33203 0.101562,0.45899 c 0.01911,0.0955 -0.0388,0.19518 -0.136719,0.23437 l -0.43164,0.15234 -0.154297,0.43165 c -0.04,0.1 -0.138089,0.15754 -0.232422,0.13867 l -0.460937,-0.10157 -0.328125,0.30469 c -0.07984,0.0599 -0.198725,0.0551 -0.251953,0.002 l -0.330079,-0.30664 -0.308593,0.0606 v 1.23242 l 0.695312,-0.3457 c 0.06192,-0.0207 0.122468,-0.0208 0.175781,-0.004 l 0.679688,0.38086 v -0.41992 c 0,-0.0682 0.05216,-0.13648 0.128906,-0.13867 h 0.304688 l 1.207031,0.002 c 0.172906,0 0.292969,-0.12005 0.292969,-0.29297 v -6.2832 c 0,-0.17288 -0.120038,-0.29297 -0.292969,-0.29297 H 20.480469 c -0.172907,0 -0.292969,0.12005 -0.292969,0.29297 v 6.2832 c 0,0.17289 0.120039,0.29297 0.292969,0.29297 h 6.646484 c 0.117584,0 0.191406,0.0724 0.191406,0.18946 0,0.117 -0.07436,0.1914 -0.191406,0.1914 h -6.646484 c -0.382136,0 -0.673828,-0.2917 -0.673828,-0.67383 v -6.2832 c 0,-0.38214 0.291691,-0.67383 0.673828,-0.67383 z m 5.679687,0.9668 h 2.900391 c 0.117032,0 0.191406,0.0744 0.191406,0.19141 0,0.11699 -0.07381,0.18945 -0.191406,0.18945 h -2.900391 c -0.117589,0 -0.189453,-0.0719 -0.189453,-0.18945 0,-0.11757 0.07241,-0.19141 0.189453,-0.19141 z m 0.714844,0.9668 c 0.0026,-1.2e-4 0.0042,0 0.0098,0 h 1.451172 c 0.117596,0 0.189453,0.0719 0.189453,0.18945 0,0.11756 -0.07242,0.19141 -0.189453,0.19141 h -1.451172 c -0.117027,0 -0.189454,-0.0738 -0.189454,-0.19141 0,-0.11341 0.06929,-0.18464 0.179688,-0.18945 z m -5.427734,1.44922 h 3.054687 c 0.11705,0 0.189453,0.0738 0.189453,0.1914 -1e-6,0.11754 -0.07186,0.18945 -0.189453,0.18945 h -3.054687 c -0.117584,0 -0.191407,-0.0724 -0.191407,-0.18945 0,-0.11701 0.07437,-0.19142 0.191407,-0.1914 z m 4.021484,0 h 1.449219 c 0.117026,0 0.191406,0.0744 0.191406,0.1914 0,0.11697 -0.07382,0.18945 -0.191406,0.18945 H 25.46875 c -0.117572,0 -0.191406,-0.0724 -0.191406,-0.18945 0,-0.117 0.07438,-0.19142 0.191406,-0.1914 z m 4.292969,0.42578 c 0.0074,-1.9e-4 0.01472,0 0.02344,0 0.50388,0 0.916036,0.41215 0.916016,0.91601 0,0.50388 -0.412011,0.91406 -0.916016,0.91406 -0.504002,0 -0.916015,-0.41018 -0.916015,-0.91406 0,-0.49603 0.399616,-0.90341 0.892578,-0.91601 z m 0.02344,0.38086 c -0.293634,0 -0.533203,0.24176 -0.533203,0.53515 0,0.29381 0.239392,0.53321 0.533203,0.53321 0.293815,0 0.533203,-0.23938 0.533203,-0.53321 0,-0.29339 -0.239563,-0.53515 -0.533203,-0.53515 z m -8.349609,0.16015 c 0.003,-1.3e-4 0.0065,0 0.01172,0 h 2.08789 c 0.117053,0 0.191423,0.0744 0.191406,0.19141 0,0.11699 -0.07381,0.18945 -0.191406,0.18945 h -2.08789 c -0.117596,0 -0.191407,-0.0724 -0.191407,-0.18945 0,-0.11341 0.06999,-0.18662 0.179688,-0.19141 z m 3.054687,0 c 0.003,-1.3e-4 0.0065,0 0.01172,0 h 0.724609 c 0.117042,0 0.191407,0.0744 0.191407,0.19141 0,0.11699 -0.07381,0.18945 -0.191407,0.18945 h -0.724609 c -0.11758,0 -0.191406,-0.0724 -0.191406,-0.18945 0,-0.11341 0.06998,-0.18662 0.179687,-0.19141 z m -2.568359,1.16016 c 0.171053,0 0.34494,0.0656 0.480469,0.20117 l 0.242187,0.24219 c 0.05761,0.0578 0.116193,0.0879 0.205078,0.0879 h 3.070313 c 0.117598,0 0.189453,0.0719 0.189453,0.18945 0,0.11757 -0.07241,0.19141 -0.189453,0.19141 h -3.070313 c -0.179372,0 -0.33661,-0.0651 -0.472656,-0.20117 l -0.242187,-0.24219 c -0.116486,-0.11654 -0.291962,-0.11629 -0.408204,0 l -0.146484,0.14453 c -0.07684,0.0769 -0.190737,0.0769 -0.267578,0 -0.07684,-0.0768 -0.0766,-0.19095 0,-0.26758 l 0.148438,-0.14648 c 0.122876,-0.13411 0.290071,-0.19922 0.460937,-0.19922 z"
         sodipodi:nodetypes="sssssssssssssscccccccccccccccccccccccccccccccccccccccccccccccccccccccccccccccccccccccccccccsscscccssccscssssssssssssssssssssssssssssssssssssssssssssssssssssssssssscssssssssssscssscsss"
         inkscape:original-d="m 20.480845,113.61315 c -0.410785,0 -0.725021,0.31423 -0.725021,0.72502 v 6.28231 c 0,0.41078 0.314236,0.72502 0.725021,0.72502 h 6.646622 c 0.144985,0 0.241329,-0.0969 0.241329,-0.24185 0,-0.14496 -0.09636,-0.24133 -0.241329,-0.24133 h -6.646622 c -0.144981,0 -0.241846,-0.0969 -0.241846,-0.24184 v -6.28231 c 0,-0.14498 0.09688,-0.24184 0.241846,-0.24184 h 11.720731 c 0.144982,0 0.241846,0.0969 0.241846,0.24184 v 6.28231 c 0,0.14498 -0.09688,0.24184 -0.241846,0.24184 l -1.208195,-10e-4 H 30.68849 c -0.106249,0.003 -0.178283,0.0961 -0.178283,0.19013 v 0.33283 l -0.604098,-0.33796 c -0.07249,-0.0242 -0.145058,-0.0242 -0.217558,0 l -0.628385,0.31367 v -1.11156 l 0.241846,-0.0481 0.314192,0.2899 c 0.07249,0.0725 0.217523,0.0725 0.314193,0 l 0.314193,-0.2899 0.434598,0.0966 c 0.120832,0.0242 0.241585,-0.0482 0.289905,-0.16898 l 0.145211,-0.41083 0.410828,-0.14521 c 0.120812,-0.0483 0.193152,-0.16909 0.168982,-0.2899 l -0.09663,-0.43512 0.289904,-0.31419 c 0.07249,-0.0725 0.07249,-0.21698 0,-0.31368 l -0.289904,-0.31419 0.09663,-0.43512 c 0.02417,-0.12081 -0.04817,-0.2416 -0.168982,-0.2899 l -0.38654,-0.12092 -0.145211,-0.41083 c -0.04834,-0.12088 -0.169091,-0.19318 -0.289905,-0.16898 l -0.435115,0.0966 -0.337964,-0.2899 c -0.07249,-0.0725 -0.217533,-0.0725 -0.314193,0 l -0.314192,0.2899 -0.434599,-0.0966 c -0.120815,-0.0242 -0.242102,0.0482 -0.290422,0.16898 l -0.120406,0.38654 -0.410828,0.14521 c -0.120842,0.0483 -0.193668,0.16909 -0.169498,0.2899 l 0.09663,0.43512 -0.289905,0.33796 c -0.07249,0.0725 -0.07249,0.2175 0,0.3142 l 0.07286,0.0729 0.202055,0.19379 -0.08165,0.48265 c -0.02417,0.14499 0.07246,0.26571 0.19327,0.28991 0.144985,0.0242 0.265734,-0.0725 0.289904,-0.19327 l 0.120923,-0.55604 c 0.02417,-0.0725 2.61e-4,-0.16874 -0.04806,-0.21704 l -0.241846,-0.26562 0.241846,-0.26613 c 0.04832,-0.0725 0.07223,-0.14506 0.04806,-0.21756 l -0.07235,-0.33796 0.338481,-0.0971 c 0.07249,-0.0242 0.120524,-0.0722 0.144694,-0.1447 l 0.09663,-0.33848 0.33848,0.0729 c 0.07249,0.0241 0.169238,-2.7e-4 0.217558,-0.0486 l 0.265617,-0.24185 0.266134,0.24185 c 0.07249,0.0484 0.144541,0.0728 0.217041,0.0486 l 0.33848,-0.0729 0.09663,0.33848 c 0.02417,0.0724 0.07271,0.1205 0.145211,0.1447 l 0.337964,0.0971 -0.07235,0.33796 c -0.02417,0.0725 2.56e-4,0.16926 0.04858,0.21756 l 0.241329,0.26613 -0.241329,0.26562 c -0.04832,0.0725 -0.07275,0.14454 -0.04858,0.21704 l 0.07235,0.33848 -0.337964,0.0966 c -0.07249,0.0242 -0.121041,0.0727 -0.145211,0.14521 l -0.09663,0.33848 -0.33848,-0.0729 c -0.07249,-0.0242 -0.168721,2.8e-4 -0.217041,0.0486 l -0.266134,0.24133 -0.265617,-0.24185 c -0.07249,-0.0483 -0.145068,-0.0723 -0.217558,-0.0481 l -0.556038,0.12093 c -0.120804,0.0241 -0.19327,0.12052 -0.19327,0.24133 v 1.71565 c 0,0.0967 0.04842,0.16926 0.120923,0.21756 0.02415,0 0.0726,0.0243 0.120923,0.0243 0.04834,0 0.07235,-9e-5 0.07235,-0.0243 l 0.869714,-0.43512 0.870231,0.43512 c 0.07249,0.0483 0.168839,0.0483 0.241329,0 0.07249,-0.0483 0.120923,-0.14506 0.120923,-0.21756 v -0.42581 l 1.208195,5.2e-4 c 0.410785,0 0.725021,-0.31424 0.725021,-0.72502 v -6.28231 c 2.5e-5,-0.41079 -0.314236,-0.72502 -0.725021,-0.72502 z m 5.679756,0.96635 c -0.144986,0 -0.241329,0.0969 -0.241329,0.24185 0,0.14497 0.09636,0.24184 0.241329,0.24184 h 2.899565 c 0.144985,0 0.241846,-0.0969 0.241846,-0.24184 0,-0.14496 -0.09687,-0.24185 -0.241846,-0.24185 z m 0.711585,0.96687 c -0.137479,0.006 -0.227893,0.10091 -0.227893,0.24133 0,0.14497 0.09636,0.24184 0.241329,0.24184 h 1.45004 c 0.144981,0 0.241329,-0.0969 0.241329,-0.24184 0,-0.14496 -0.09635,-0.24133 -0.241329,-0.24133 h -1.45004 c -0.0045,0 -0.009,-1.9e-4 -0.01344,0 z m -5.424992,1.44952 c -0.144985,0 -0.241329,0.0969 -0.241329,0.24185 0,0.14496 0.09636,0.24132 0.241329,0.24132 h 3.054594 c 0.144985,0 0.241329,-0.0964 0.241329,-0.24132 0,-0.14497 -0.09634,-0.24185 -0.241329,-0.24185 z m 4.020943,0 c -0.144977,0 -0.241329,0.0969 -0.241329,0.24185 0,0.14496 0.09637,0.24132 0.241329,0.24132 h 1.450041 c 0.144981,0 0.241329,-0.0964 0.241329,-0.24132 0,-0.14497 -0.09636,-0.24185 -0.241329,-0.24185 z m 4.292245,0.42581 c -0.520236,0.0133 -0.941545,0.44307 -0.941545,0.96635 0,0.53159 0.434755,0.96635 0.966349,0.96635 0.531596,0 0.966866,-0.43476 0.966866,-0.96635 2.1e-5,-0.53158 -0.43527,-0.96635 -0.966866,-0.96635 -0.0083,0 -0.01655,-2.1e-4 -0.0248,0 z m 0.0248,0.48318 c 0.265801,0 0.483175,0.21737 0.483175,0.48317 0,0.26581 -0.217374,0.48318 -0.483175,0.48318 -0.265795,0 -0.483174,-0.21739 -0.483174,-0.48318 0,-0.2658 0.217379,-0.48317 0.483174,-0.48317 z m -8.351428,0.0579 c -0.137483,0.006 -0.227893,0.10091 -0.227893,0.24133 0,0.14499 0.09636,0.24184 0.241329,0.24184 h 2.088244 c 0.144981,0 0.241329,-0.0969 0.241329,-0.24184 2.1e-5,-0.14498 -0.09634,-0.24133 -0.241329,-0.24133 H 21.44719 c -0.0045,0 -0.009,-1.9e-4 -0.01344,0 z m 3.054594,0 c -0.137486,0.006 -0.22841,0.10091 -0.22841,0.24133 0,0.14499 0.09689,0.24184 0.241846,0.24184 h 0.72502 c 0.144981,0 0.241329,-0.0969 0.241329,-0.24184 0,-0.14498 -0.09635,-0.24133 -0.241329,-0.24133 h -0.72502 c -0.0045,0 -0.009,-1.9e-4 -0.01344,0 z m -2.566769,1.15962 c -0.18425,0 -0.365777,0.0725 -0.498677,0.21755 l -0.144694,0.1447 c -0.09666,0.0967 -0.09666,0.24181 0,0.33848 0.09666,0.0967 0.241298,0.0967 0.337964,0 l 0.145211,-0.14521 c 0.09666,-0.0967 0.241303,-0.0967 0.337963,0 l 0.241846,0.24184 c 0.144981,0.14498 0.314158,0.21756 0.507463,0.21756 h 3.070613 c 0.144985,0 0.241329,-0.0969 0.241329,-0.24185 0,-0.14496 -0.09635,-0.24132 -0.241329,-0.24132 h -3.070613 c -0.07249,0 -0.120658,-0.0239 -0.168982,-0.0724 l -0.241846,-0.24185 c -0.144989,-0.14499 -0.332002,-0.21755 -0.516248,-0.21755 z"
         inkscape:path-effect="#path-effect75538" /></g></g><style
     id="style58337">
		tspan { white-space:pre }
		.shp0 { fill: #4c4c4c } 
		.shp1 { fill: #000000 } 
		.shp2 { fill: #808080 } 
	</style><style
     type="text/css"
     id="style73738"><![CDATA[
	.st0{fill-rule:evenodd;clip-rule:evenodd;}
]]></style><style
     id="style24127">
		tspan { white-space:pre }
		.shp0 { fill: #4c4c4c } 
		.shp1 { fill: #000000 } 
		.shp2 { fill: #808080 } 
	</style></svg>
