<?xml version="1.0" encoding="UTF-8" standalone="no"?>
<!-- Created with Inkscape (http://www.inkscape.org/) -->

<svg
   width="31.504292"
   height="30.727058"
   viewBox="0 0 8.3355103 8.1298674"
   version="1.1"
   id="svg5"
   xml:space="preserve"
   xmlns:xlink="http://www.w3.org/1999/xlink"
   xmlns="http://www.w3.org/2000/svg"
   xmlns:svg="http://www.w3.org/2000/svg"><defs
     id="defs2"><linearGradient
       id="linearGradient1130"><stop
         style="stop-color:#fff9f5;stop-opacity:1;"
         offset="0.01492079"
         id="stop1126" /><stop
         style="stop-color:#ffffff;stop-opacity:0;"
         offset="1"
         id="stop1128" /></linearGradient><linearGradient
       id="linearGradient60825"><stop
         style="stop-color:#ffffff;stop-opacity:1;"
         offset="0"
         id="stop60823" /></linearGradient><radialGradient
       xlink:href="#linearGradient1130"
       id="radialGradient1132"
       cx="265.37708"
       cy="111.65417"
       fx="265.37708"
       fy="111.65417"
       r="83.872917"
       gradientUnits="userSpaceOnUse"
       gradientTransform="translate(60.854166,-16.379388)" /><clipPath
       clipPathUnits="userSpaceOnUse"
       id="clipPath15853"><path
         style="display:inline;fill:#ffffff;fill-opacity:1;stroke:none;stroke-width:0.816999;stroke-linecap:round;stroke-miterlimit:3.9;stroke-dasharray:none;stroke-opacity:1;paint-order:fill markers stroke"
         d="m 204.30261,11.040011 c -2.10582,1.511801 -2.70236,4.914009 -4.18281,6.319573 -3.36043,-1.107912 -8.1347,-1.562224 -10.24872,1.766622 -2.94322,4.634551 -1.98909,10.445441 -0.94469,15.494564 0.84525,4.086353 2.00706,8.114506 3.59181,11.977571 1.91033,1.761392 3.19557,4.421635 5.57255,5.500035 3.16217,1.434631 6.36325,3.173174 9.87494,3.440629 3.02777,-0.388917 5.45591,-2.382353 7.84774,-4.106476 4.33687,0.966942 9.59822,1.904098 13.15296,-1.163987 2.31112,-1.994721 4.80525,-0.44162 7.15335,0.4899 3.00131,1.190658 6.24342,1.399096 9.4772,1.082551 3.53778,-0.346303 7.02254,-1.055079 10.62832,-0.700883 3.55855,0.349557 7.20414,0.172253 10.54723,-1.488129 3.85691,-1.915574 7.37262,-5.762457 6.83927,-10.420746 -0.56874,-4.967429 -3.40951,-9.295367 -6.21179,-13.28933 -1.79923,-1.528908 -2.18001,-3.825518 -2.76925,-5.998421 -1.13286,-4.177553 -1.93287,-8.429773 -2.33241,-12.7405703 -16.79601,0.5464715 -33.78246,-0.9578216 -50.38869,1.618798 -2.60808,0.4046693 -5.3486,0.7350896 -7.60701,2.2182993 z"
         id="path15855" /></clipPath></defs><rect
     style="display:inline;fill:#efefef;fill-opacity:1;stroke-width:3.01519;stroke-linecap:round;stroke-miterlimit:3.9;paint-order:fill markers stroke"
     id="rect184"
     width="508"
     height="140.85995"
     x="-246.87383"
     y="-122.63965" /><style
     id="style9077">
		tspan { white-space:pre }
		.shp0 { fill: #4c4c4c } 
		.shp1 { fill: #000000 } 
		.shp2 { fill: #808080 } 
	</style><g
     id="g56894"
     style="display:inline"
     transform="translate(-240.43784,-136.66257)"><g
       id="g52638"
       style="display:none;stroke-width:1.2;stroke-dasharray:none"
       transform="matrix(0.88811621,0,0,0.88811621,28.281513,42.590566)"><circle
         style="display:none;fill:url(#radialGradient1132);fill-opacity:1;stroke-width:1.297;stroke-linecap:round;stroke-miterlimit:3.9;stroke-dasharray:none;paint-order:fill markers stroke"
         id="path544"
         cx="326.23123"
         cy="95.274788"
         r="83.872917" /><path
         style="color:#000000;display:none;fill:#c56d86;stroke-width:1.2;stroke-linecap:round;stroke-miterlimit:3.9;stroke-dasharray:none;paint-order:stroke fill markers"
         d="m 288.03516,-36.183594 c -19.4627,0.976511 -38.17716,9.077454 -53.63954,20.454144 -9.92561,7.3029216 -15.77592,18.8753533 -17.11547,31.328633 -1.58123,14.700061 -0.89293,30.382086 6.38587,43.605895 -3.9366,14.683852 -2.56592,30.277506 0.42471,44.950052 4.79525,23.52631 19.68809,43.40917 36.49023,59.85794 15.02558,14.70957 33.54199,27.74051 55.28712,29.51911 17.04256,1.39396 33.05468,-8.05195 43.47752,-21.22963 9.58985,-12.12452 13.94591,-27.15051 20.56637,-40.88464 7.99629,-16.58828 11.59622,-34.782275 17.88346,-52.012874 5.37732,-14.736907 12.71924,-31.150909 6.88067,-46.717625 C 398.73987,16.860313 386.12428,3.9567655 370.88996,-3.1049706 355.88315,-15.251706 337.95213,-23.106204 320.04078,-29.763016 309.81355,-33.564 299.02882,-36.438481 288.03516,-36.183594 Z m 0.0312,1.199219 c 23.88429,-0.02738 46.17109,10.417604 66.21463,22.120646 3.44238,2.00994 11.78464,6.5152972 11.66506,8.1440818 -19.93853,-6.8954368 -42.26913,-8.4326468 -62.29549,-2.365602 -14.32609,4.3401311 -27.17098,12.4018007 -39.59194,20.5145712 -16.44317,10.739883 -32.0796,24.570796 -39.50495,43.219007 -4.88743,-4.990173 -5.71893,-13.202918 -6.25751,-19.99282 -0.9885,-12.462178 -1.80417,-26.189048 4.40242,-37.27704344 8.84285,-15.79765156 26.28671,-23.79438756 42.51976,-29.67871356 7.3307,-2.657308 15.02846,-4.476818 22.84802,-4.684127 z m 43.75976,26.0976562 c 13.84037,0.1483828 29.83276,-0.4086775 40.61284,8.65932449 17.93685,15.08814231 28.5635,38.55580631 26.70148,62.56146631 -0.773,9.965741 -2.91751,20.024795 -8.34371,28.563286 -0.96083,2.651475 -4.47256,11.178452 -4.10202,3.21008 0.85224,-18.327118 -1.10718,-39.158992 -15.00531,-52.490251 -6.61616,-6.346305 -15.41687,-10.526576 -24.60742,-11.115234 -12.78899,-5.728058 -28.15176,-9.976418 -41.54808,-3.03324 -15.96226,8.273081 -23.41308,25.944955 -28.15735,42.202242 -3.08137,10.559002 -5.93717,22.888176 0.10958,32.877655 4.02825,6.65483 0.0279,13.8636 2.58483,21.11329 5.03353,14.27169 20.25416,21.44491 33.99054,24.73993 11.63689,2.7914 23.48187,0.13969 35.29466,-0.8247 18.85672,-1.53945 32.75656,-19.04331 35.82667,-36.80224 -0.21136,-8.61933 4.82404,-15.631013 8.75388,-22.92406 0.92843,-0.907326 -1.97704,7.698874 -2.82813,10.570366 -4.62269,15.596524 -12.07975,30.112274 -18.06377,45.204484 -6.52398,16.45403 -15.24334,33.27411 -31.13589,42.67559 -15.08572,8.92419 -34.05769,7.3286 -49.37246,-0.16361 -19.2363,-9.41068 -34.70638,-25.04311 -47.72695,-41.72538 -11.71174,-15.00536 -19.22071,-33.11394 -21.27121,-52.187157 -1.06162,-9.874889 -1.56488,-20.033454 0.59396,-29.787117 4.47989,1.037142 7.07523,9.214381 12.59369,11.22668 2.37848,3.276924 12.11348,5.785305 4.70437,1.590311 -6.77571,-3.836364 -12.8119,-9.290719 -16.4792,-16.23156 8.04935,-22.477037 27.94974,-37.896758 47.83853,-49.5667612 13.49815,-7.9202124 27.50472,-15.9241148 43.50734,-17.5909695 5.15792,-0.5372561 10.34653,-0.693111 15.52913,-0.7524251 z m 43.43945,9.63281255 c 15.7215,8.68062155 29.72649,24.55984925 30.16095,43.00190025 0.24391,10.353461 -3.40526,20.226566 -6.73121,29.86724 4.18442,-18.294076 1.95836,-38.172188 -8.0513,-54.423491 C 386.43066,12.351111 381.17007,6.1823407 375.26557,0.74609375 Z M 319.20898,24.773437 c 7.89411,-0.409486 19.87913,3.360485 24.28447,5.691253 -8.89385,-0.865942 -14.30162,10.767231 -23.5923,7.396486 -10.40932,-0.972929 -18.63537,6.991198 -23.05332,15.883426 -5.13733,10.34015 -7.29361,21.912797 -7.799,33.376492 -4.1229,4.147535 -5.75738,15.084266 -10.22697,15.668116 -6.90182,-11.727048 -2.62533,-25.982867 1.4887,-37.887671 5.08842,-14.724419 12.67923,-30.355263 27.66968,-37.234319 3.53021,-1.619999 7.34283,-2.671006 11.22874,-2.893783 z m 27.61719,6.933594 c 17.29337,7.42844 28.57473,26.260682 26.82994,45.129101 -1.15003,12.436597 -4.30978,24.517388 -6.85779,36.734358 -1.74168,8.35086 -1.8724,18.79845 -9.07038,24.2255 -9.58363,7.22576 -22.90582,5.0785 -33.12965,0.83731 -9.7675,-4.05189 -18.0968,-10.91629 -26.37842,-17.27228 -7.74837,-9.43223 -7.97463,-22.308635 -7.96987,-33.919614 10.08183,-17.470195 21.7329,-34.432994 37.24414,-47.548828 10.89967,1.191 22.34781,5.92691 28.19406,15.690567 -1.94986,-8.668906 -11.67638,-12.53045 -19.2712,-15.147187 -5.65201,0.152937 -9.28366,-3.540643 -2.07436,-5.915564 3.73235,-2.22564 8.17913,-3.040014 12.48353,-2.813363 z m 3.33985,0.421875 c 17.74446,2.313846 29.92237,18.684848 33.4627,35.562579 2.3591,11.246474 2.14784,22.84673 1.13105,34.236245 -7.17649,11.64161 -14.27901,23.44576 -23.36915,33.72852 7.1588,-12.97976 6.88222,-28.27533 10.5942,-42.332718 3.61234,-13.680052 4.74492,-28.874698 -2.14289,-41.834605 -4.38825,-8.256809 -11.41873,-15.018685 -19.67591,-19.360021 z m -32.41797,7.023438 c 6.19797,-0.99311 9.40951,1.883937 2.84298,5.344971 -12.14924,11.79349 -21.78239,25.884164 -30.30197,40.442138 1.30909,-14.802461 3.72655,-31.860091 15.67978,-41.633446 3.28549,-2.686324 7.50926,-4.306216 11.77921,-4.153663 z m -28.67188,50.349609 c 0.18451,10.266306 0.47214,21.306567 6.39453,30.140627 -4.91473,-4.8522 -16.50267,-9.56248 -13.16373,-17.68318 1.80348,-4.386275 4.51888,-8.303119 6.7692,-12.457447 z m 95.48242,14.999997 c -0.4963,18.88191 -13.73944,38.08429 -32.91992,41.69532 2.81963,-3.25255 10.37865,-9.1113 14.50532,-14.20265 6.95992,-8.58692 12.51683,-18.17697 18.4146,-27.49267 z m -103.99609,2.91602 c 6.24797,8.70041 16.07084,13.73795 23.54075,21.21368 7.92378,5.38238 16.21932,10.30862 24.5167,15.03961 3.22648,1.83967 11.90439,2.99362 12.28215,4.41725 -19.42221,2.88112 -42.10907,-0.9054 -55.05547,-16.39012 -5.54141,-6.62788 -7.25078,-15.96487 -5.28413,-24.28042 z m 79.58203,29.61133 c -5.39777,5.3254 -12.46932,11.42829 -20.65767,8.87066 -4.67117,-0.50592 -14.38062,-5.07234 -14.76066,-6.0517 11.25378,4.03757 26.05527,6.67403 35.41833,-2.81896 z"
         id="path55368" /><path
         id="path56646"
         style="opacity:1;fill:#c36e85;fill-opacity:1;stroke:#c56d86;stroke-width:1.2;stroke-linecap:round;stroke-miterlimit:3.9;stroke-dasharray:none;stroke-dashoffset:0;stroke-opacity:1;paint-order:stroke fill markers"
         d="m 330.24098,58.183572 c -3.44452,-2.415149 -10.01601,-0.545416 -12.72808,2.491911 -1.88289,2.10868 -6.24623,11.82229 -11.65191,9.408271 9.3027,14.760836 27.09121,-9.71048 24.37999,-11.900182 z m 19.80318,9.226805 c -1.93665,0.698975 -2.23283,3.679021 -2.28847,5.737191 -0.1079,3.991716 -0.14449,10.972474 3.83075,11.350519 4.73617,0.45041 8.33956,-7.846378 7.03127,-12.420497 -0.89478,-3.128419 -5.51293,-5.771856 -8.57355,-4.667213 z" /><path
         style="color:#000000;fill:#3a3a3a;stroke-width:1.0757;stroke-linecap:round;stroke-linejoin:round;stroke-miterlimit:3.9;paint-order:stroke fill markers"
         d="m 308.0625,110.05978 c -0.84195,0.051 -0.45909,0.93581 -0.36225,1.44091 0.91046,4.74865 0.22551,10.11082 2.73139,14.24594 0.57545,0.94959 1.11032,0.002 0.95289,-0.81873 -0.8938,-4.66203 -1.78761,-9.32405 -2.68141,-13.98607 16.08333,0 32.16667,0 48.25,0 -0.93815,4.88994 -3.94937,9.82178 -2.81445,14.66983 0.24723,1.0561 1.06845,0.22619 1.21704,-0.54879 0.92635,-4.83153 3.25723,-9.59834 2.77906,-14.49458 -0.0721,-0.73796 -0.97782,-0.45011 -1.49236,-0.50851 -16.1933,0 -32.38661,0 -48.57991,0 z"
         id="rect58325" /><path
         id="path29042"
         d="m 352.35877,110.28979 c -0.0224,-2.14577 -1.05951,-4.32362 -0.46347,-6.41393 0.36927,-1.29503 1.4276,-2.28489 1.97282,-3.57364 1.7163,-4.056851 0.47228,-9.227382 -3.10297,-11.808153 -1.41944,-1.024615 -2.17693,-3.177178 -1.26696,-4.460895 0.44698,-0.630566 1.34124,-0.251615 2.00441,-0.361826 0.97135,-0.161427 1.23564,0.472551 2.15998,0.671628 1.06169,0.228658 1.04602,-0.88185 1.04602,-1.655329 0,-0.715664 -0.71192,-2.073868 0,-2.146992 0.69231,-0.07111 1.80514,0.477525 2.09152,-0.173398 0.35117,-0.798195 0.46635,-1.799725 0.1734,-2.61949 -0.4257,-1.19123 1.55774,-1.333114 1.10099,-2.14886 -0.4159,-0.742796 -0.98325,-1.002175 -1.10099,-2.21108 -0.0821,-0.843377 0.47293,-1.995512 -0.1734,-2.551549 -0.59527,-0.512111 -2.05955,0.328867 -2.09152,-0.671116 -0.03,-0.937635 0.43332,-2.013431 -0.0464,-2.817246 -0.85323,-1.429611 -2.11387,1.642643 -2.20497,-0.260078 -0.36086,-7.537089 -5.59115,-14.412673 -12.62222,-17.122704 -7.57982,-2.921539 -16.74287,-0.483286 -22.07308,5.699188 -2.7909,3.237143 -2.7597,7.843536 -4.62185,11.660722 -0.6834,1.400887 -1.98258,-1.75837 -2.14679,0.02276 -0.10459,1.134456 1.08998,3.313383 -0.0465,3.430042 -0.69225,0.07106 -1.8046,-0.477446 -2.09131,0.173191 -0.35161,0.797905 -0.46647,1.79945 -0.17361,2.619109 0.42567,1.191381 -1.55614,1.332865 -1.10099,2.149449 0.41447,0.743603 0.98322,1.001884 1.10099,2.211081 0.0821,0.843376 -0.47291,1.995482 0.1734,2.551547 0.5952,0.512095 2.05961,-0.3288 2.09152,0.670188 0.03,0.937833 -0.55177,2.097558 0.0464,2.817834 1.02935,1.239428 1.16395,-0.494831 2.56648,-0.305167 0.81497,0.110208 2.22201,-0.613637 2.47993,0.179363 0.34028,1.046231 0.38465,2.416945 -0.17815,3.385684 -0.83296,1.433755 -2.32212,2.282806 -3.26828,3.685257 -2.49309,3.6954 -0.66363,8.123404 0.89153,12.294766 0.56543,1.51664 -0.32301,3.20371 -0.17821,4.86863 0.0823,0.94616 -0.60461,2.35122 0.22357,2.84847 1.26188,0.75766 1.25048,-1.04862 1.22172,-1.88158 -0.084,-2.43437 0.19522,-4.91141 1.49156,-7.07313 1.56894,-2.616298 4.66067,-3.381834 7.38265,-4.621904 1.06887,-0.486952 1.90659,0.20006 2.74512,0.924831 3.76777,3.256633 10.86029,3.773833 13.45897,-0.477541 0.58347,-0.954542 1.64589,-0.501916 2.52615,-0.375232 3.86304,0.555959 7.14542,3.491416 8.24318,7.288926 0.55887,1.93332 -0.30123,4.07386 0.38229,5.92748 0.28597,0.77552 1.47266,0.46681 1.37705,-0.34931 z M 332.72274,50.153622 c 6.82295,0.02708 13.54153,4.025439 16.50425,10.225236 1.02693,2.148959 3.55263,5.345203 1.74644,6.907243 -1.63857,1.417078 -1.7347,-1.561875 -1.98211,-2.656793 -1.63317,-7.227699 -8.51896,-12.92154 -15.9761,-12.882054 -6.99497,-0.196024 -11.81767,5.557112 -15.9103,11.219406 -0.97272,1.345792 -0.005,4.13113 -1.65953,4.680523 -1.43999,-0.07164 -0.65855,-2.019711 -0.49346,-2.913637 1.33121,-7.208133 7.49416,-13.109806 14.72454,-14.326797 1.00598,-0.169323 2.02618,-0.253318 3.04627,-0.253127 z m 0.58109,3.043614 c 7.10544,0.105948 13.68753,5.886351 14.50702,12.903202 0.34484,2.952684 0.19344,5.935778 0.19344,8.904354 0,2.69132 0.55791,5.441101 0,8.073959 -0.12802,0.604149 0.0763,1.338041 0.002,2.027449 -0.20678,1.919725 0.85776,3.642934 2.30787,4.904931 3.29995,2.871873 3.86074,8.393432 1.02418,11.761159 -1.28534,-0.82717 -2.1544,-2.648535 -3.59573,-3.658932 -1.18705,-0.83214 -2.52722,-1.104301 -2.29062,-3.204209 0.37889,-3.362746 0.27084,-6.755497 0.21796,-10.133452 -0.0456,-2.91441 0.26767,-5.853671 -0.11869,-8.742669 -0.5638,-4.215853 -3.64898,-8.072345 -7.73442,-9.327531 -1.84002,1.187894 1.23406,2.046572 2.09867,2.638358 3.02896,2.073195 4.08421,5.821966 4.30826,9.438203 0.18801,3.034501 -0.62126,6.116676 -2.50662,8.565262 -3.16151,4.105963 -9.17545,5.360953 -13.87813,3.179504 -4.16405,-1.931591 -6.20595,-6.519781 -6.50151,-11.084799 -0.18065,-2.790217 0.64661,-5.579984 2.42329,-7.816904 1.64127,-2.066431 4.28055,-2.751586 6.2008,-4.510659 2.50246,-2.292417 6.02996,-6.901054 3.49554,-9.158037 -1.48405,-1.321597 -1.36514,1.331465 -1.47527,2.298732 -0.39225,3.444994 -2.91873,6.215074 -5.95671,7.83423 -3.79345,2.021797 -6.15903,6.185854 -6.13338,10.548335 0.0274,4.666362 1.00319,9.431705 0.0545,13.999818 -0.30494,1.468393 1.54907,3.558117 -0.34529,4.459718 -2.10579,1.002231 -3.78625,2.730168 -4.968,4.714122 -1.54895,-0.59956 -2.0819,-3.110837 -2.2198,-4.738471 -0.26087,-3.079038 1.53285,-5.836178 3.79643,-7.885163 1.38214,-1.251111 1.44476,-3.178471 1.44977,-4.926913 0.0161,-5.609947 -0.21297,-11.225956 0.0281,-16.830216 0.28737,-6.680668 5.56962,-12.606206 12.11589,-13.938471 1.14995,-0.234032 2.33072,-0.326906 3.50042,-0.29491 z m 16.73957,15.895011 c 0.95575,0.08838 2.30563,-0.494408 2.87733,0.342717 0.60128,0.880441 0.34214,2.029006 0.34214,3.045523 0,2.858749 0.31467,5.734868 0,8.576246 -0.15872,1.433209 -1.71192,0.911339 -2.7171,1.168629 -0.94107,0.240881 -0.89938,-0.696896 -1.09403,-1.453371 -0.36065,-1.401596 1.52673,-0.488492 1.66972,-1.640046 0.15688,-1.263382 -1.29874,-0.259188 -1.66972,-1.637002 -0.33517,-1.244828 1.34447,-0.747533 1.62323,-1.475001 0.55818,-1.456667 -1.35057,-0.687186 -1.62323,-1.771305 -0.23099,-0.918419 0.64299,-0.777353 1.30803,-1.35116 1.06468,-0.918629 -0.8573,-0.794962 -1.13484,-1.572771 -0.21275,-0.596232 -0.47456,-2.083953 0.41847,-2.232459 z m -35.89051,5.89e-4 c 0.66582,0.1007 2.00274,-0.415353 2.00653,0.361284 0.003,0.690939 0.37465,1.976388 -0.64128,2.044198 -1.17186,-0.36954 -1.38608,1.618437 -0.10485,1.445642 1.0047,-0.135501 1.03011,1.524898 0.4311,1.946128 -1.06588,-0.346573 -1.98702,1.804941 -0.62246,1.491538 0.99676,-0.228929 1.58259,1.270785 0.93766,1.630927 -0.64465,0.359983 -2.85187,2.007414 -1.26391,1.760844 0.91188,-0.141592 1.08667,0.485523 1.31039,1.403587 0.24383,1.000568 -0.79813,1.160573 -1.54905,1.048378 -1.2327,0.242791 -2.26443,-0.350666 -2.26443,-1.856777 0,-3.369236 -0.49975,-6.775742 0,-10.107709 0.13923,-0.928284 0.87885,-1.305918 1.7603,-1.16804 z m 41.14788,3.01538 c 0.47906,0.499738 0.24028,1.351104 0.22702,2.02745 -0.03,1.531136 1.00527,3.490663 -0.0467,4.597755 -0.96912,1.019937 -0.78415,-0.753952 -0.77262,-1.378537 0.03,-1.626879 -0.56881,-3.383439 0.0465,-4.884984 0.0882,-0.215167 0.31258,-0.365279 0.54577,-0.361684 z m -44.58085,0.114687 c 0.47906,0.499738 0.24022,1.351103 0.22702,2.02745 -0.0299,1.531212 1.00519,3.490451 -0.0465,4.597944 -0.96939,1.020846 -0.78432,-0.753762 -0.77279,-1.378726 0.03,-1.626879 -0.56881,-3.383437 0.0465,-4.884984 0.0882,-0.215168 0.31258,-0.365279 0.54577,-0.361684 z m 14.79167,5.791982 c 0.77786,1.105301 4.41143,1.442087 4.27988,0 -0.19191,-2.103729 -3.24029,-2.259748 -4.17229,-0.656721 0,0 -0.10508,0.31832 -0.10508,0.31832 0,0 -0.003,0.338401 -0.003,0.338401 z m 3.59025,5.937284 c -1.59559,0.948051 1.2646,2.639224 2.31954,2.990318 2.17353,0.723374 7.06909,-0.808202 5.61518,-2.603269 -0.94533,-1.167149 -1.80026,0.912723 -2.87022,1.335727 -1.58501,0.626625 -3.53121,0.0066 -4.47078,-1.41213 0,0 -0.26246,-0.23404 -0.26246,-0.23404 0,0 -0.33138,-0.07661 -0.33138,-0.07661 0,0 1.2e-4,7e-6 1.2e-4,7e-6 z m -7.68369,2.506021 c 0.67564,1.398909 2.4984,2.393485 2.42901,4.10015 -0.0655,1.610651 1.24711,3.406371 0.44146,4.789084 -0.37285,0.639915 -1.99457,1.213099 -2.24286,0.509323 -1.03254,-2.926781 -0.62407,-6.084482 -0.70819,-9.133307 -0.35575,0.0258 0.17783,-0.265879 0.0806,-0.26525 z m 22.72447,0.003 c 0.18142,1.163036 0.0932,2.414505 0.0806,3.614039 -0.0215,2.04531 0.10356,4.184613 -0.56669,6.125572 -0.68317,-0.104736 -1.79698,0.164726 -2.0669,-0.481877 -0.49007,-1.173998 0.36157,-2.620755 0.19834,-3.929795 -0.18601,-1.491755 0.27005,-2.781836 1.35144,-3.920906 0.39211,-0.413025 0.57419,-1.058545 1.00321,-1.407033 z m -18.84982,4.230475 c 0.90394,0.906512 2.68015,0.98688 2.836,2.605692 0.071,0.737282 0.0369,1.766334 -0.95078,1.765953 -1.6213,0.807238 -1.72362,-1.333892 -1.82979,-2.515578 -0.0554,-0.617065 -0.0564,-1.237745 -0.0554,-1.856067 z m 14.9187,0.206436 c 0.22079,1.317985 0.83993,4.11243 -0.52213,4.259881 -0.72117,0.07807 -2.22174,0.01117 -2.15212,-0.901613 0.0646,-0.846939 -0.30219,-2.053224 0.77681,-2.41 0.66281,-0.219162 1.22825,-0.852128 1.89744,-0.948268 z m -4.47043,1.900858 c 0.62977,0.439726 0.67951,1.724984 0.21058,2.210255 -1.52071,1.573712 -5.10731,2.12631 -6.08247,0.232688 -0.33852,-0.657359 -0.73281,-2.563454 0.0566,-2.418405 1.92785,0.354253 3.88968,0.347895 5.81534,-0.02454 z m 1.83263,3.53942 c 1.15094,-0.02292 1.16372,0.60742 0.096,1.346956 -3.16422,2.191648 -12.40032,2.647525 -10.6323,-0.799195 0.39821,-0.776304 1.7736,-0.518087 2.54222,-0.08486 2.21935,1.250913 4.80182,0.497642 7.16958,-0.370385 0.26107,-0.09571 0.54783,-0.148267 0.82449,-0.09251 z m 2.5311,-18.403602 c -0.79239,1.105566 -4.45989,1.448717 -4.31908,0 0.20513,-2.110475 3.26561,-2.256765 4.2105,-0.656721 0,0 0.10605,0.31832 0.10605,0.31832 0,0 0.003,0.338401 0.003,0.338401 z"
         style="display:inline;fill:#3a3a3a;fill-opacity:1;stroke:none;stroke-width:5.7;stroke-dasharray:none;stroke-opacity:1;paint-order:stroke fill markers" /><path
         id="path6"
         class="shp0"
         d="m 332.72566,115.94606 c -1.50629,0.86524 -4.51887,0.85861 -4.51887,2.59572 0,1.73047 0,3.46094 0,5.19141 0.57162,-0.33218 1.71485,-0.33541 1.71485,-0.99654 0,-0.67983 -0.26328,-1.41271 0,-2.03949 0.0906,-0.21576 0.30538,0.002 0.42912,0.0749 0.61155,0.3598 1.50304,0.44872 1.83932,1.07257 0.0956,0.17726 0.0489,0.398 0.0489,0.59626 0,0.64706 0.25071,1.34465 0,1.94117 -0.0907,0.21585 -0.30476,-0.003 -0.42901,-0.0752 -0.49042,-0.28394 -0.98083,-0.56788 -1.47124,-0.85182 -0.57162,0.33218 -2.26542,0.63052 -1.71485,0.99654 0.25358,0.16858 0.57203,0.3406 0.85534,0.50359 1.21658,0.69993 2.42385,2.81492 3.64068,2.11543 0.24885,-0.14305 0.54805,-0.31643 0.81635,-0.47134 1.22646,-0.70813 4.90385,-1.41283 3.67938,-2.12439 -0.57162,-0.33218 -1.14324,-0.66436 -1.71486,-0.99654 -0.58707,0.3399 -1.09292,0.90317 -1.7612,1.01971 -0.22186,0.0387 -0.1401,-0.28428 -0.13904,-0.42777 0.005,-0.70867 -0.34201,-1.51128 0.008,-2.12661 0.10116,-0.17786 0.31756,-0.24763 0.49091,-0.34555 0.57818,-0.32658 1.14183,-1.29327 1.73051,-0.9885 0.15802,0.0818 0.088,0.31271 0.088,0.46819 0,0.5607 -0.48479,1.40037 0,1.68209 0.57162,0.33218 1.31239,1.52104 1.71486,0.99653 0.0441,-0.0574 0.0232,-0.2394 0.0232,-0.35827 0,-1.61877 1.40188,-4.0469 0,-4.85631 -1.49857,-0.86524 -2.99714,-1.73047 -4.49571,-2.59571 0,0.66438 -0.57496,1.66024 0,1.99313 0.58707,0.3399 1.32801,0.49768 1.76121,1.01971 0.14826,0.17866 -0.16531,0.25874 -0.29012,0.32991 -0.61667,0.35164 -1.22598,0.71779 -1.84729,1.06027 -0.23508,-0.03 -0.43336,-0.19369 -0.6365,-0.31337 -0.53912,-0.31763 -1.53423,-0.32768 -1.62184,-0.94642 -0.0255,-0.18009 0.21644,-0.23307 0.3484,-0.30947 0.48396,-0.28021 1.45198,-0.2814 1.45189,-0.84063 -1.1e-4,-0.66441 -2.3e-4,-1.32883 -3.4e-4,-1.99324 z"
         style="display:inline;fill:#3a3a3a;fill-opacity:1;stroke:#efefef;stroke-width:0.9;stroke-dasharray:none;stroke-opacity:0.996078;paint-order:markers fill stroke" /><g
         id="g13766"
         style="display:inline"
         transform="translate(71.966667,-24.60625)"><path
           id="path12450"
           style="display:inline;fill:#c56d86;fill-opacity:1;stroke:none;stroke-width:0.223884;stroke-linecap:round;stroke-miterlimit:3.9;stroke-dasharray:none;stroke-opacity:1;paint-order:fill markers stroke"
           d="m 193.99798,14.519527 c -4.65495,-0.07002 -10.42942,6.466999 -11.82719,12.039575 -2.53752,0.02138 -5.34115,0.949237 -6.81819,2.406572 -2.28404,2.253643 -2.96273,8.223899 -0.0765,9.625769 3.52922,1.714123 9.11665,-1.618426 11.19105,-5.741769 11.48806,3.081643 14.50177,-5.447867 13.87409,-9.637137 -0.62769,-4.189272 -4.80771,-8.669912 -6.34328,-8.69301 z m 90.98204,25.27391 c -1.96487,0.0013 -4.15681,0.671571 -5.4405,1.71204 -2.74516,2.225036 -4.38295,8.898405 -2.13785,10.382829 5.19659,3.435905 11.76443,-4.077998 11.99772,-7.487398 0.23482,-3.431805 -2.68564,-4.608592 -4.41937,-4.607471 z m -115.3759,-4.532023 c -0.48778,0.0054 -1.01007,0.117343 -1.5136,0.284737 -1.46483,0.486962 -2.32298,1.872223 -1.91668,3.094384 0.40629,1.222162 1.92308,1.520493 3.3879,1.331185 1.53092,-0.197848 2.61141,-1.280524 2.08205,-3.226676 -0.30374,-1.116708 -1.10846,-1.493976 -2.03967,-1.48363 z" /><path
           style="color:#000000;display:inline;fill:#3a3a3a;stroke-linecap:round;stroke-miterlimit:3.9;paint-order:fill markers stroke"
           d="m 243.94531,2.7910156 c -6.13389,-0.01942 -12.22307,2.3527546 -16.77929,6.4492188 -5.6186,-5.7578615 -15.64667,-5.9806816 -21.76241,-0.6822565 -2.36623,2.0500041 -4.14973,4.7804991 -5.01494,7.7935841 -7.65384,-1.733506 -14.27822,4.108189 -18.32683,10.829308 -1.1253,1.868118 -3.45162,1.830577 -5.13289,3.065676 -5.16061,3.791102 -6.27596,11.795455 -2.42088,16.999532 3.0308,4.091363 9.39798,7.284784 13.67561,4.357238 1.47937,-1.012458 2.94414,-0.540005 4.63242,0.254717 1.49037,0.701561 3.37846,-0.166026 4.68212,1.219777 2.62968,2.795368 6.74071,3.993625 10.51063,3.561221 2.61906,-0.300402 4.76415,-1.95589 6.95232,-3.464788 1.71185,-1.180444 3.66305,0.131914 5.47736,0.306926 4.02306,0.388073 7.81708,-5.351591 11.34285,-3.362028 6.44087,3.634534 14.01397,0.801886 21.40501,1.375689 2.29474,0.178152 4.43682,1.066037 6.80181,1.034305 7.92246,-0.106299 15.074,-6.817437 15.76751,-14.779916 0.4665,-5.356078 -3.60463,-9.420261 -6.22678,-14.189012 -1.03187,-1.876599 0.7142,-3.487983 0.7333,-5.575185 0.0441,-4.82036 -3.72672,-9.4307842 -8.56325,-10.0488686 -1.89875,0.168932 -3.40015,-0.7288659 -5.00571,-1.6700066 -3.84381,-2.2531467 -8.28904,-3.4855517 -12.74796,-3.4751312 z m 0,1.296875 c 5.32624,-0.013348 9.58752,6.1550794 14.81446,5.1308594 5.25592,-1.0298989 9.60247,3.884749 10.18799,9.234688 0.20255,1.85072 -2.99026,4.17231 -1.46385,5.079344 6.7086,3.986433 8.92226,13.556127 4.9766,20.338848 -3.40534,5.853891 -11.29529,9.36667 -17.56307,6.539362 -1.84322,-0.831451 -3.44252,0.456747 -5.16182,0.884457 -6.05849,1.507171 -12.71209,0.564045 -18.06179,-2.674354 -4.25836,3.831194 -10.87598,4.744839 -16.01314,2.210804 -3.11425,4.16528 -9.10965,5.716107 -13.92901,3.640625 -1.65071,-0.710887 -2.59683,-2.463949 -4.20054,-3.29211 -1.73923,-0.898144 -4.13613,0.385424 -5.53749,-1.255499 -1.35755,-1.589619 -3.15463,0.249844 -4.61856,0.660057 -5.27281,1.477511 -11.28872,-1.590365 -13.27273,-6.789363 -1.84069,-4.823444 1.22467,-9.513872 4.79213,-13.340069 1.18135,-1.267029 3.589,-0.551093 4.1191,-2.441769 2.00931,-7.16644 9.90854,-9.332454 17.36858,-10.355463 1.75666,-0.240894 1.28047,-2.495947 2.04404,-3.630073 1.30154,-1.93318 2.78342,-3.811217 4.7002,-5.2214894 4.02097,-2.9584343 9.50265,-3.6676533 14.19279,-1.8453664 2.21311,0.8598719 4.23254,2.2352459 5.80188,4.0209958 4.42204,-4.3716851 10.60143,-6.9242907 16.82423,-6.8944844 z m 46.30352,35.8731764 c -6.8072,-0.246796 -12.48709,6.703873 -11.36225,13.449855 0.95332,5.717324 6.67086,10.08724 12.5365,9.506441 5.40298,-0.534988 9.97814,-5.273514 10.31332,-10.782442 0.30271,-4.975307 -2.96138,-9.878381 -7.73075,-11.54233 -1.20454,-0.420243 -2.48031,-0.642044 -3.75682,-0.631524 z m 0,1.298828 c 4.06984,0.04873 7.21552,3.277919 9.12554,6.67612 1.58667,2.822911 1.68144,6.529944 -0.33005,9.300297 -3.34723,4.610016 -10.55323,5.805893 -15.17285,2.231504 -4.40313,-3.406884 -5.04596,-10.530048 -1.27623,-14.75295 1.91718,-2.147653 4.75276,-3.516925 7.65359,-3.454971 z m -3.3086,25.270704 c -4.06871,-0.238496 -6.88817,4.750835 -5.05415,8.400453 1.73444,3.451465 7.04589,3.934603 9.54227,0.853796 2.22006,-2.739802 1.12799,-7.284656 -2.19345,-8.768899 -0.71892,-0.321262 -1.50608,-0.496714 -2.29467,-0.48535 z m 0,1.296875 c 3.49314,-0.288104 5.80577,4.587525 3.29461,7.176661 -2.3814,2.455349 -7.61889,1.351829 -8.09596,-2.192397 -0.35968,-2.672109 2.25237,-4.990497 4.80135,-4.984264 z"
           id="path10804" /><path
           id="path15775"
           style="color:#000000;display:inline;fill:#3a3a3a;stroke-width:1.2;stroke-linecap:round;stroke-linejoin:round;stroke-miterlimit:3.9;stroke-dasharray:none;paint-order:fill markers stroke"
           d="m 234.35986,11.764657 c -0.0701,1.287741 0.48497,3.686829 1.66796,3.284596 1.28351,-0.436412 2.19007,-1.260935 3.63802,-1.65422 1.14484,-0.310955 2.3222,1.346579 3.11865,0.855274 0.89146,-0.549917 1.67906,-0.156679 2.84666,-0.03749 0.62005,0.0633 1.16531,-0.685936 0.20604,-0.519974 -0.974,-0.485915 -2.17285,-0.630244 -3.02132,-0.02605 -1.22297,-0.614863 -2.51759,-0.99731 -3.86951,-0.561733 -1.25663,-0.113841 -2.22727,1.929822 -3.10403,1.233016 -0.79616,-0.632749 -0.72221,-1.905414 -1.48247,-2.573424 z m -28.59051,0.329695 c -0.92412,0.848303 -1.83282,1.909074 -3.35651,1.569181 -0.74989,-0.16728 -3.0078,-0.619496 -2.54151,-0.32791 1.16363,0.727649 2.65121,1.379395 3.8841,0.894144 0.88636,-0.34886 0.80467,-0.841986 2.56221,-0.310114 0.52001,0.157367 0.76977,-0.340394 1.54448,0.231644 0.77638,0.573268 1.82422,-1.102942 0.70783,-1.103976 -0.39873,1.466001 -1.73281,-0.883659 -1.94368,0.106107 -0.18941,0.88902 -0.47505,-1.115357 -0.85692,-1.059076 z m 14.719,11.911418 c 0.009,1.310108 -1.52188,3.435343 -2.52755,2.481632 -0.79192,-0.751006 -1.92191,-1.52593 -2.85049,-0.721432 -0.91044,-0.491479 -1.42825,-0.395934 -2.79423,-0.103901 -0.89854,0.192099 -0.83757,-2.311473 -1.74934,-1.083201 -0.46045,0.620289 -1.62979,1.596743 -2.02253,0.367254 -0.65355,1.202333 0.7162,1.450283 1.6454,0.40366 0.63688,-0.717366 0.74405,0.399793 1.39305,0.697938 1.00238,0.460488 1.30923,-0.489884 2.96545,0.110415 0.91443,0.331436 1.46527,-0.41825 2.67768,0.40534 0.9601,0.652196 2.86114,0.369575 3.09617,-0.694752 0.19226,-0.870661 0.6474,-0.560475 0.98203,0.119497 0.58705,1.192906 2.11967,1.714684 3.13046,0.527617 0.36199,-0.425121 2.37605,-0.812962 1.08571,-1.06953 -1.12728,0.09462 -1.83483,1.913406 -3.1207,1.121262 -0.95121,-0.58598 -1.06556,-1.939857 -1.91111,-2.561799 z m -10.42469,4.228682 c -0.42386,0.522173 -1.70492,0.647948 -1.43867,1.520429 0.738,-1.211218 1.53231,-0.368121 2.19622,0.738286 0.4724,0.787256 0.76154,-0.227237 1.38625,-0.415577 0.97613,-0.294286 1.97399,-0.533638 2.97758,-0.233517 0.52098,0.155797 1.261,-0.383705 0.32924,-0.497399 -1.11792,0.327769 -2.54777,0.26557 -3.4569,0.175563 -0.3166,0.645153 -0.81727,0.805109 -1.20867,-0.08302 -0.19306,-0.438074 -0.38749,-0.909824 -0.78505,-1.204764 z m 38.6948,16.950904 c -0.7462,-0.39789 -1.91252,1.15119 -0.55912,0.768693 1.04002,-0.293929 1.1011,2.038874 2.39321,0.781113 0.82166,-0.799817 1.79499,0.257913 2.65005,0.01203 1.19439,-0.343454 -0.7727,-0.734968 -1.17918,-0.941926 -1.13337,-0.577046 -1.93076,1.698029 -2.77351,0.271798 -0.16904,-0.286076 -0.19237,-0.751828 -0.53145,-0.891712 z m -16.62948,0.115238 c -0.24511,1.165493 -1.61379,1.688192 -2.40515,0.782185 -1.29714,0.0753 -2.16947,1.054329 -3.65052,0.988585 -1.18177,-0.05246 -2.53529,0.06399 -3.47834,-0.795535 -0.8032,0.637101 -1.42568,0.408412 -2.40651,-0.290065 -0.75873,-0.540316 -1.87674,0.577416 -0.59276,0.547747 0.89822,-0.02075 1.0957,0.762502 2.56665,0.530621 1.13314,-0.178629 2.12058,0.349523 3.36539,0.411834 1.08855,0.05449 2.23642,0.05476 3.20712,-0.740403 0.99738,-0.81701 1.66136,-0.408633 3.15923,-0.100485 0.21016,0.04324 1.26158,1.851875 1.78153,0.814939 0.68884,-1.373742 2.40415,0.574589 3.0667,-0.213629 0.429,-0.510371 -1.18016,-0.738621 -1.6292,-0.937063 -0.95026,-0.419944 -2.11584,1.656209 -2.57679,0.370577 -0.16057,-0.447841 -0.0559,-0.999083 -0.40735,-1.369308 z m -32.82848,0.726571 c -0.10559,0.836222 -1.70378,1.16656 -1.55804,1.530541 0.38587,0.963729 1.60471,0.08934 1.54314,-0.354216 0.36403,0.608507 0.61829,1.503066 1.43469,0.408663 0.90382,-1.211592 1.17475,0.961791 2.32972,0.387693 0.67689,-0.336461 1.05109,0.793344 2.09744,0.213805 0.93167,-0.516021 -0.31029,-1.938549 -1.29603,-0.952737 -0.86742,0.867487 -2.23806,-0.05797 -2.42538,-0.789827 -0.55182,0.510285 -1.29052,1.505353 -1.75147,0.104423 -0.0702,-0.213323 -0.20534,-0.401865 -0.37407,-0.548345 z" /><path
           style="color:#000000;display:inline;fill:#3a3a3a;stroke-width:0.777781;stroke-dasharray:none"
           d="m 213.8343,10.945696 c -7.66169,-1.4078499 -15.38714,0.87258 -23.07899,0.08988 -0.0321,3.348781 -0.0642,6.697562 -0.0962,10.046343 3.69269,0 7.38538,0 11.07807,0 -0.90871,0.473264 -0.78605,2.682391 0.24848,1.320949 0,7.327369 0,14.654739 0,21.982108 -1.96368,0.420699 -5.4975,-0.720931 -6.43436,0.721478 -0.0301,3.138693 -0.0602,6.277385 -0.0902,9.416078 1.48569,0.160749 4.0624,-0.769522 3.26735,1.671964 -0.0984,1.645494 -0.3669,3.461076 1.85465,2.786606 19.16475,0 38.32949,0 57.49423,0 0.29442,-1.317954 -0.69659,-5.193064 0.81876,-3.455871 -1.36446,-3.216016 3.01451,-1.675201 4.88649,-1.861045 2.11048,-0.209522 5.06011,0.420107 6.64337,-0.316638 0,-3.27193 0,-6.543859 0,-9.815788 -4.11593,0 -8.23186,0 -12.34779,0 0.0556,-1.898968 0.52926,-4.215988 -2.10071,-3.429377 -1.75668,0.156738 -3.43365,0.233771 -2.70092,-2.098893 0,-4.897417 0,-9.794835 0,-14.692252 2.69052,0.86256 -0.93132,-3.152343 1.7303,-2.219429 1.62218,-0.530106 5.12971,1.231256 5.12971,-1.276574 0,-2.95567 0,-5.91134 0,-8.867009 -9.3217,0 -18.64341,0 -27.96511,0 -0.46399,1.456599 1.08707,5.678552 -1.31671,3.835566 -1.72513,-0.290552 0.64722,1.298268 -1.14278,0.7812 -4.5497,0.0052 -9.0994,0.0097 -13.64911,0.01399 -1.08984,-1.222712 -2.79349,0.448948 -2.22866,-1.742221 0.0246,-0.963205 -0.0147,-1.927223 1.1e-4,-2.891069 z m -0.70132,2.068514 C 185.81491,11.346129 158.49684,9.6780477 131.17877,8.0099667 158.49684,9.6780479 185.81491,11.346129 213.13298,13.01421 Z M 191.5773,14.116309 C 167.02686,12.36378 142.47642,10.611251 117.92598,8.8587218 142.47642,10.611251 167.02686,12.36378 191.5773,14.116309 Z m 23.28116,1.542408 c 2.01089,1.031328 -2.07968,0.683617 0,0 z m 17.0127,0.277236 c 0.69023,-0.02621 -0.33108,0.479563 0,0 z m -15.69488,0.512699 c 4.86704,0.02784 9.73408,0.05539 14.60112,0.08228 -2.0262,1.790254 2.56286,-0.967987 1.37434,1.299136 -0.0664,1.810551 -0.46429,3.994752 2.03632,3.268937 1.50859,0.366545 5.78727,-0.944627 3.57131,1.529562 -0.0875,1.01335 1.93974,0.70606 1.0659,2.365405 0.0715,5.087095 0.0115,10.187152 0.0312,15.279299 -2.89318,0.27236 -6.8753,-0.544212 -9.08932,0.40731 0.16243,1.800575 0.26962,3.545903 -2.06325,2.851173 -3.71385,0 -7.42771,0 -11.14156,0 0,3.377475 0,6.754951 0,10.132426 4.36151,0 8.72303,0 13.08454,0 1.28044,3.600854 -2.9171,2.484427 -4.99247,2.49195 -6.23626,0.02261 -12.47253,0.04472 -18.70879,0.06656 -1.16799,-3.287056 3.81887,-0.208517 3.25457,-2.903848 -0.0282,-2.946699 -0.0564,-5.893398 -0.0847,-8.840096 -1.95299,-0.447557 -5.60906,0.782266 -6.42665,-0.783548 0.004,-7.128014 0.009,-14.256029 0.0126,-21.384044 1.84896,2.044167 -0.8385,-2.346795 1.4993,-1.229216 2.80641,0 5.61281,0 8.41922,0 1.70148,2.014657 -3.18377,0.604891 -4.3183,1.014002 -3.76908,-0.997558 -1.66361,3.879433 -2.19969,6.114872 0,3.397151 0,6.794303 0,10.191454 9.15092,0 18.30184,0 27.45276,0 0,-4.505009 0,-9.010018 0,-13.515027 -1.5872,-3.530145 -5.21159,-2.791374 -8.41777,-2.791367 -3.77179,8e-6 -7.54358,3.4e-5 -11.31537,1.2e-5 0.059,-1.530117 -0.31284,-4.81776 0.34636,-5.196878 0.68364,0.54877 1.44528,-0.04179 2.0083,-0.450349 z m -2.79737,-5.465922 c -0.082,3.132623 -0.16393,6.265247 -0.2459,9.39787 -7.1976,0 -14.3952,0 -21.5928,0 0.093,-3.242866 0.18599,-6.485732 0.27898,-9.728598 3.65835,-1.3662135 7.6672,-1.0588631 11.49329,-0.9259397 3.32531,0.1155257 6.8281,0.04039 9.96722,1.1807027 0,0 0.0992,0.07597 0.0992,0.07597 z m 46.07578,-0.07807 c -0.006,3.158645 -0.0129,6.31729 -0.0194,9.475935 -8.85553,0 -17.71107,0 -26.5666,0 0.0578,-3.215311 0.11561,-6.430621 0.17342,-9.645932 m 19.33571,10.34472 c -1.31054,0.984992 -0.96471,2.513843 0.16068,2.538456 0.091,5.727445 0.003,11.456481 0.0367,17.184584 1.48944,0.452269 4.92254,-1.039115 4.80164,1.023495 0.71292,3.08206 -3.55121,1.187076 -5.4016,1.705826 -2.21037,0.210149 -5.26199,-0.420946 -6.94492,0.316638 0,3.27193 0,6.543859 0,9.815788 4.06023,0 8.12046,0 12.18069,0 -1.26974,1.17584 -0.29829,2.199676 0.15621,1.774518 0.0364,1.582008 0.46827,3.559221 -1.80257,2.84094 -18.71209,0 -37.42419,0 -56.13628,0 0.0112,-1.968116 -0.67024,-4.62897 2.18086,-3.757237 1.72906,0.115324 4.49945,-0.772691 3.62323,1.920131 1.72258,1.097135 4.89037,0.480043 7.20958,0.480043 6.00848,0 12.01695,0 18.02543,0 -0.0359,-0.990861 -0.16948,-2.497551 0.82948,-1.382679 0.0398,-0.98274 -1.19673,-2.43771 0.71008,-1.875808 3.83088,0 7.66176,0 11.49264,0 0.0225,-3.37743 0.0182,-6.754987 0,-10.132426 -4.3438,0 -8.68759,0 -13.03139,0 -0.13248,-1.463177 -0.19902,-3.231649 1.85379,-2.557158 2.29658,-0.356214 6.0258,0.720212 7.40641,-0.55198 0,-5.703791 0,-11.407582 0,-17.111373 2.82891,0.611389 -1.28262,-3.182704 1.77778,-2.131536 3.61772,-0.08243 7.24876,-0.05994 10.87155,-0.100222 z m -13.08583,0.338 c 2.03618,1.55179 -2.06285,1.32371 0,0 z m 13.64409,0.03165 c 1.84808,1.261476 -1.70815,1.646028 0,0 z m -46.13393,1.34694 c 7.9407,0 15.88139,0 23.82209,0 -0.19943,1.741843 -0.15895,3.186182 1.98034,2.589352 0.58243,2.052275 0.0819,4.525964 0.24894,6.738056 -0.54272,1.859198 1.38602,6.189852 -1.62821,5.577539 -8.14105,0 -16.28211,0 -24.42316,0 0,-4.968316 0,-9.936631 0,-14.904947 z m 24.70064,0.705117 c 1.86748,0.981189 -0.39823,2.205627 0,0 z m -14.2391,20.73198 c 8.51247,0 17.02494,0 25.53741,0 -0.26662,2.79474 0.53287,6.655594 -0.39902,8.785058 -8.37946,0 -16.75893,0 -25.13839,0 0,-2.928353 0,-5.856705 0,-8.785058 z m 28.46675,0 c 7.99808,0 15.99617,0 23.99425,0 -0.25147,2.8444 0.50195,6.693688 -0.37491,8.912697 -7.87311,0 -15.74623,0 -23.61934,0 0,-2.970899 0,-5.941798 0,-8.912697 z m -49.38861,0.857029 c 3.99651,0 7.99301,0 11.98952,0 -0.25103,2.771451 0.50126,6.546224 -0.37467,8.692772 -3.87162,0 -7.74323,0 -11.61485,0 0,-2.897591 0,-5.795181 0,-8.692772 z"
           id="path11423"
           mask="none"
           clip-path="url(#clipPath15853)" /></g></g><g
       id="g18553"
       transform="matrix(1.2516092,0,0,1.2516092,-191.77083,-27.028066)"
       style="display:inline"><path
         id="path23620"
         style="display:inline;opacity:1;fill:#c36e85;fill-opacity:1;stroke:none;stroke-width:0.217621;stroke-linecap:round;stroke-linejoin:round;stroke-dasharray:none;stroke-opacity:1;paint-order:stroke fill markers"
         d="m 364.088,-155.45674 c -0.10033,-0.24101 -0.71705,-0.37129 -0.93486,-0.18749 -0.2178,0.1838 -0.16692,0.79008 0.25967,0.70378 0.42659,-0.0863 0.7755,-0.27529 0.67519,-0.51629 z m -1.86842,-2.08988 c -3.2e-4,0.41439 0.91091,1.6122 2.0348,1.61214 1.12365,-8e-5 2.03374,-0.78857 2.02055,-1.63432 -0.007,-0.46188 -0.51714,-0.83896 -1.19897,-0.91829 -0.68183,-0.0793 -2.85572,0.0752 -2.85638,0.94047 z M 280.8303,-17.481763 c -0.19836,0.125043 -0.37789,0.2548 -0.53745,0.389048 -5.10611,4.295822 -6.28261,29.48104 6.70507,28.910367 12.98763,-0.570674 23.88356,-22.250839 23.9901,-27.519585 0.10218,-5.104169 -24.0085,-5.655924 -30.15772,-1.77983 z"
         transform="rotate(31.867307)" /><path
         id="path27475"
         style="display:inline;opacity:1;fill:#000000;fill-opacity:0.0785715;stroke:none;stroke-width:0.3;stroke-linecap:round;stroke-linejoin:round;stroke-dasharray:none;stroke-opacity:1;paint-order:stroke fill markers"
         d="m 311.53757,17.108517 c -1.7342,-0.0075 -4.44892,1.207391 -4.27209,3.17345 0.22634,2.516555 10.71775,7.129871 10.30428,4.108793 -0.41347,-3.021078 -5.28547,-3.214569 -5.67355,-4.434872 -0.38808,-1.220302 1.91109,-1.609684 0.78238,-2.542997 -0.24691,-0.204162 -0.65544,-0.302277 -1.14102,-0.304374 z m 24.89151,36.97397 c -0.45661,-0.0025 -0.8953,0.109627 -1.3069,0.365353 -1.12698,0.700186 -2.96581,2.62144 -2.14354,4.894275 0.46385,1.28212 5.95139,1.581539 9.14142,4.901854 1.4923,1.553245 -3.38853,14.275526 -4.28487,14.270619 -3.61377,-0.01978 0.79825,-10.19372 0.7953,-13.033313 -0.004,-3.671193 -3.78127,15.012893 -14.5929,15.715319 3.30417,0.61522 8.54838,0.796225 11.34659,0.112655 0.19317,-0.04719 -11.14805,3.018267 -11.69076,4.468461 -0.85989,2.297742 18.83214,2.817381 21.62504,-0.535885 1.8133,-2.177147 0.33844,-13.744712 -1.38545,-18.644339 -0.143,-0.406417 3.66974,-3.444721 2.9869,-4.835881 -0.71593,-1.458568 -5.40328,-7.651281 -10.49083,-7.679118 z m -10.07381,3.794601 c -0.21115,-1.3e-4 -0.42171,0.01187 -0.62838,0.03617 -2.20455,0.259192 -5.07358,7.826605 -3.78065,8.092013 1.29292,0.265404 5.18351,-4.289448 6.92929,-5.727299 1.58212,-1.303056 -0.47906,-2.399633 -2.52026,-2.400887 z m -20.32537,17.48317 c -2.89774,-0.02654 -7.24518,2.009744 -8.79171,4.112927 -1.97956,2.692075 -3.85377,4.845516 -2.85823,7.970573 0.99554,3.125057 10.55883,0.605837 15.34635,0.636137 4.78754,0.03031 0.54644,-10.455606 -1.69705,-12.168249 -0.49076,-0.374641 -1.18799,-0.543958 -1.99936,-0.551388 z m 14.76396,15.637288 c -2.98704,0.01018 -5.52816,0.161438 -6.36396,0.621668 5.33279,0.277638 13.09305,1.953035 11.64787,2.36368 -6.81766,1.937217 -10.06932,9.847226 -10.77712,12.455056 -1.56441,5.76394 11.98696,15.78586 19.13268,22.67872 -22.94736,-34.322413 13.02061,-25.80873 1.5875,-37.570837 -0.67285,-0.480768 -1.61845,-0.209217 -2.41019,-0.203088 -1.62179,0.01256 -7.83838,-0.362165 -12.81678,-0.345199 z"
         transform="matrix(0.79897144,0,0,0.79897144,148.07724,32.798564)" /><path
         id="path19921"
         style="display:inline;opacity:1;fill:none;fill-opacity:1;stroke:#3a3a3a;stroke-width:0.239691;stroke-linecap:round;stroke-linejoin:round;stroke-dasharray:none;stroke-opacity:1;paint-order:stroke fill markers"
         d="M 394.09139,32.217873 V 46.21147 c -1.2192,-0.01946 -3.06457,0.08472 -3.8117,0.580558 0,0 1.41205,1.508386 1.42005,2.316917 8.2e-4,0.08293 1.61421,-0.224784 4.01958,0.02275 -3.31295,-0.02307 -4.33392,0.321348 -4.76379,0.47064 -1.18663,0.412111 -5.77565,1.835963 -6.95394,7.055271 2.52255,0.105952 4.20429,0.162398 6.72684,0.180456 0.61027,0.0044 2.06136,0.0065 2.67162,0.0065 0.43592,2.4e-5 -2.32328,0.03628 -1.88736,0.03427 -0.34508,0.372497 -0.48701,3.108517 2.39382,3.108517 2.6753,0 2.53027,-2.779204 2.03457,-3.154286 2.77162,-0.02427 5.54324,-0.08821 8.31486,-0.175462 -1.82328,-6.703757 -7.60451,-7.068121 -7.62342,-7.548665 -0.0189,-0.480544 1.42006,-2.541135 1.42006,-2.541135 -0.66406,-0.19259 -1.98377,-0.334884 -3.28853,-0.35634 m 12.34382,41.595583 c -0.5837,2.624924 -0.99813,8.042085 -0.44783,9.522919 m -4.74848,32.441317 -1.21579,9.20527 0.65132,0.0434 1.30263,-7.59869 m 7.81753,-8.30051 0.61407,-9.21099 -3.74581,-0.36844 -1.04391,0.30703 c 0,0 5.77223,14.00072 5.58801,14.61478 -0.18422,0.61407 -0.36844,0.9211 -0.36844,0.9211 0,0 3.03998,1.8697 3.71345,2.18608 0.64651,-0.0857 1.6519,0.62224 1.81314,0.88425 0.49126,0.79829 -1.56587,4.6055 -1.75009,5.5266 -0.18422,0.9211 -0.33545,2.96056 -0.99785,3.83792 -0.64755,0.85768 -2.84006,1.9343 -4.06819,1.99571 m 6.07925,-12.58836 -1.96501,-17.31667 -1.65798,0.0614 -1.16672,11.72867 m 13.66501,-19.58872 c 0,0 -1.25629,5.93455 -3.71714,6.32489 l 4.42128,26.65048 h -0.49125 l -5.34238,-25.97501 -4.11424,0.73688 2.21063,26.34345 -0.55266,0.12281 -0.67547,-5.588 m 6.37662,-46.787201 c 0,0 5.20204,-0.206929 4.89344,3.377415 -0.30859,3.584345 -2.30503,11.489986 -2.30503,11.489986 m -26.4,3.08289 c 0,0 -3.6145,1.31688 -4.34211,1.65 -0.7276,0.33312 -2.0512,2.58139 -1.0421,5.12369 1.0091,2.5423 10.49736,21.18947 10.49736,21.18947 1.82524,0.0223 3.65048,0.64279 4.64673,2.79093 -1.21933,-1.65293 -3.05392,-2.69381 -5.23973,-2.61288 1.08012,-0.0635 2.61889,4.67713 1.64564,5.85748 -1.40207,1.70041 -4.86316,2.34473 -5.21053,3.21315 -0.34737,0.86843 -0.20572,1.5278 -0.0434,2.10593 0.16207,0.57728 6.70856,2.21447 8.27171,0.39079 1.56316,-1.82368 1.16305,-2.76694 1.67171,-3.75592 0.5184,-1.00792 3.12632,-3.82106 3.12632,-3.82106 0,0 0.22516,-0.72185 -0.0651,-1.19408 -0.29029,-0.47223 -1.15057,-0.26319 -1.84539,-1.06381 -0.56861,-0.65519 -2.52115,-2.26342 -2.34473,-3.82105 l -0.43422,0.43421 -3.99473,-18.93158 c 0,0 18.49736,-1.04211 17.10789,-7.46842 -3.69222,3.39874 -9.46579,-0.0868 -9.46579,-0.0868 m 22.48759,-2.60334 -26.7733,0.12281 -0.24562,-0.73688 h -9.70225 L 394.2559,91.741963 h -15.47447 l 3.91973,11.642797 4.22579,0.017 -4.54116,0.007 -3.60436,-0.12281 v 2.21064 h 6.14066 l -7.98286,41.38807 h 1.71938 l 8.3513,-41.51089 h 40.77402 l 8.10567,41.75652 h 2.08783 l -7.98287,-41.87933 h 5.03535 z M 397.66397,86.061849 c 0,0 0.12281,-1.504463 -1.16673,-1.842199 -0.86618,-1.716356 -1.44306,-1.657979 -1.44306,-1.657979 -0.34414,0.16833 0.60349,1.228462 0.22578,1.510048 l -0.9825,-0.40473 c -0.0333,-0.841386 0.17185,-2.530308 -0.25494,-2.528527 -0.15527,0.530442 -0.23462,1.21272 -0.4928,1.537347 -0.48058,-0.4125 -0.88939,-2.734814 -1.48679,-2.67337 0.0156,0.32456 0.24848,1.369755 0.0437,1.392504 0,0 -1.06542,-1.318414 -1.42353,-0.926367 0.15043,0.41931 2.31392,4.08881 2.74377,4.395843 0.42984,0.307033 1.9343,0.491254 2.42556,1.535165 m 10.2058,12.477619 -4.47237,-0.67302 -2.25789,2.909207 c 0.25586,0.10716 0.48869,0.0647 0.69473,-0.15198 0,0 -0.22022,0.36147 -0.35369,0.57658 0.28695,0.25248 0.76228,0.0282 0.94922,-0.27013 0.18695,-0.29837 1.22816,-1.370257 1.22816,-1.370257 l -0.64554,1.864877 c 0,0 0.57568,0.11943 0.80502,-0.40742 0.22934,-0.52684 0.75233,-1.00157 0.75233,-1.00157 v 1.73684 c 0.30705,0.0682 0.5561,-0.17972 0.62106,-0.6658 0.065,-0.48608 0.36525,-0.87512 0.36525,-0.87512 0,0 1.85777,0.88961 2.57421,0.36855 m 3.36517,-24.294072 2.80065,-0.08684 c 0,0 -0.506,1.119315 -1.58486,1.085526 -1.04576,-0.03275 -0.97616,-0.817051 -1.21579,-0.998685 z m 0.5684,-1.277527 c -0.61653,0.08387 -0.18545,0.890038 0.53731,0.560334 M 410.7207,69.8344 c -0.36685,0.861242 -1.20175,1.890216 -2.51315,2.143437 0,0 -0.21365,0.981312 -0.18377,1.476314 0.0261,0.431807 0.31403,1.259211 0.31403,1.259211 -0.1304,0.825841 -0.46239,4.841082 3.43027,4.559211 3.07758,-0.222851 3.83421,-3.179821 3.83421,-3.179821 0,0 2.48503,-0.166191 1.7671,-2.16097 -0.31018,-0.861843 -1.42281,0.03815 -1.42281,0.03815 -3.81438,-0.319889 -4.77184,-2.62762 -5.22588,-4.135537 z m 12.0329,15.821066 c 1.73386,-1.579371 1.6233,-3.211439 -0.69473,-4.906578 0.94481,-3.864711 -5.28673,-2.086076 -3.78657,-4.252629 2.51937,-3.638504 -2.16113,-11.882749 -7.67659,-8.078949 -3.66621,-0.582442 -5.03144,4.454043 -3.66749,5.965956 -1.38694,1.133502 -1.91144,3.121505 -0.86048,4.530992 1.46558,1.965554 -3.6187,2.116144 -4.54041,5.345904 -0.60321,2.113725 0.18154,3.456099 2.25897,4.14049 m 14.71204,-3.526725 c -0.84441,3.963819 -1.38556,7.844858 -1.08553,12.266456 l 2.64869,0.41249 c -4.32587,-0.57029 -8.81448,0.28802 -10.07369,0.78158 -0.99069,-0.16722 -1.80025,-0.51556 -3.56052,0.0868 l 0.17368,2.778947 c 0.0995,0.56414 1.00043,0.50612 2.95263,0.69474 4.09513,2.32019 11.41566,1.12199 13.1783,-1.04211 1.55215,-1.905667 1.06538,-12.522853 -1.19409,-16.499995 -1.38827,-2.443649 -6.64341,-3.734208 -6.64341,-3.734208 1.28988,1.065945 -5.80293,1.765538 -3.68212,0.03473 -0.0262,-0.122698 -0.2236,-0.8391 -0.2236,-0.8391 0,0 0.17679,0.747888 0.0865,0.790167 -5.00186,1.265346 -7.86965,9.844279 -8.24036,11.390582 l 1.61456,4.106793 c -1.36927,-2.714653 -2.04505,-5.482651 -5.40378,-8.044268 0,0 -0.45471,-1.711548 -0.82899,-1.780792 -0.37428,-0.06924 -2.78036,0.234903 -2.88611,0.675473 -0.10576,0.44057 0.18422,2.015957 0.46055,2.302749 -0.28206,1.647745 0.40848,6.826368 4.97394,9.610138" /><path
         id="path15480-7"
         style="display:inline;fill:#000000;fill-opacity:1;stroke:none;stroke-width:0.0989407;stroke-linecap:round;stroke-linejoin:round;stroke-dasharray:none;stroke-opacity:1;paint-order:stroke fill markers"
         d="m 411.77141,72.634912 c -0.33665,0.03264 -0.9348,0.160431 -0.85577,0.545186 0.18365,-0.04896 1.70292,-0.16997 1.93167,-0.12299 0.008,-0.254464 -0.69244,-0.45937 -1.0759,-0.422196 z m -3.71904,1.217359 c 0.23481,-0.04225 0.88577,-0.301747 1.5318,-0.397321 -0.0827,-0.357168 -0.41525,-0.323136 -0.65193,-0.294342 -0.37033,0.04505 -0.94002,0.452475 -0.87987,0.691663 z m 3.98052,-0.0102 c -0.23727,2.3e-4 -0.42949,0.192673 -0.42943,0.429948 2.3e-4,0.237073 0.19236,0.429201 0.42943,0.429431 0.23728,5.7e-5 0.42972,-0.192155 0.42995,-0.429431 6e-5,-0.237478 -0.19247,-0.430005 -0.42995,-0.429948 z m -2.88613,0.337447 c -0.23727,2.3e-4 -0.42949,0.192673 -0.42943,0.429948 -6e-5,0.237275 0.19216,0.429718 0.42943,0.429948 0.23748,5.7e-5 0.43001,-0.19247 0.42995,-0.429948 6e-5,-0.237478 -0.19247,-0.430005 -0.42995,-0.429948 z" /></g><path
       fill-rule="evenodd"
       clip-rule="evenodd"
       d="M 8,0 C 3.58,0 0,3.58 0,8 c 0,3.54 2.29,6.53 5.47,7.59 0.4,0.07 0.55,-0.17 0.55,-0.38 0,-0.19 -0.01,-0.82 -0.01,-1.49 C 4,14.09 3.48,13.23 3.32,12.78 3.23,12.55 2.84,11.84 2.5,11.65 2.22,11.5 1.82,11.13 2.49,11.12 3.12,11.11 3.57,11.7 3.72,11.94 4.44,13.15 5.59,12.81 6.05,12.6 6.12,12.08 6.33,11.73 6.56,11.53 4.78,11.33 2.92,10.64 2.92,7.58 2.92,6.71 3.23,5.99 3.74,5.43 3.66,5.23 3.38,4.41 3.82,3.31 c 0,0 0.67,-0.21 2.2,0.82 0.64,-0.18 1.32,-0.27 2,-0.27 0.68,0 1.36,0.09 2,0.27 1.53,-1.04 2.2,-0.82 2.2,-0.82 0.44,1.1 0.16,1.92 0.08,2.12 0.51,0.56 0.82,1.27 0.82,2.15 0,3.07 -1.87,3.75 -3.65,3.95 0.29,0.25 0.54,0.73 0.54,1.48 0,1.07 -0.01,1.93 -0.01,2.2 0,0.21 0.15,0.46 0.55,0.38 C 13.71,14.53 16,11.53 16,8 16,3.58 12.42,0 8,0 Z"
       transform="matrix(0.52096895,0,0,0.52096895,240.43784,136.66257)"
       fill="#1b1f23"
       id="path13467"
       style="display:inline;fill:#c36e85;fill-opacity:1" /></g><rect
     style="display:none;opacity:0.210332;fill:none;fill-opacity:1;stroke:#000000;stroke-width:0.375875;stroke-linecap:round;stroke-miterlimit:3.9;stroke-dasharray:none;stroke-dashoffset:0;stroke-opacity:1;paint-order:fill markers stroke"
     id="rect3443"
     width="237.74913"
     height="568.39185"
     x="-111.74841"
     y="-167.34441" /><style
     id="style58337">
		tspan { white-space:pre }
		.shp0 { fill: #4c4c4c } 
		.shp1 { fill: #000000 } 
		.shp2 { fill: #808080 } 
	</style><style
     type="text/css"
     id="style73738"><![CDATA[
	.st0{fill-rule:evenodd;clip-rule:evenodd;}
]]></style></svg>
