<?xml version="1.0" encoding="UTF-8" standalone="no"?>
<!-- Created with Inkscape (http://www.inkscape.org/) -->

<svg
   width="31.506771"
   height="30.727058"
   viewBox="0 0 8.3361664 8.1298674"
   version="1.1"
   id="svg5"
   xml:space="preserve"
   inkscape:version="1.2 (dc2aedaf03, 2022-05-15)"
   sodipodi:docname="portfolio9.svg"
   inkscape:export-filename="portfolio.png"
   inkscape:export-xdpi="96"
   inkscape:export-ydpi="96"
   xmlns:inkscape="http://www.inkscape.org/namespaces/inkscape"
   xmlns:sodipodi="http://sodipodi.sourceforge.net/DTD/sodipodi-0.dtd"
   xmlns="http://www.w3.org/2000/svg"
   xmlns:svg="http://www.w3.org/2000/svg"><sodipodi:namedview
     id="namedview7"
     pagecolor="#efefef"
     bordercolor="#000000"
     borderopacity="0.25"
     inkscape:showpageshadow="2"
     inkscape:pageopacity="1"
     inkscape:pagecheckerboard="0"
     inkscape:deskcolor="#d1d1d1"
     inkscape:document-units="mm"
     showgrid="false"
     inkscape:zoom="0.9983453"
     inkscape:cx="939.55468"
     inkscape:cy="315.52209"
     inkscape:window-width="1920"
     inkscape:window-height="1009"
     inkscape:window-x="1912"
     inkscape:window-y="-8"
     inkscape:window-maximized="1"
     inkscape:current-layer="g18553-1" /><defs
     id="defs2"><linearGradient
       id="linearGradient60825"
       inkscape:swatch="solid"><stop
         style="stop-color:#ffffff;stop-opacity:1;"
         offset="0"
         id="stop60823" /></linearGradient></defs><style
     id="style9077">
		tspan { white-space:pre }
		.shp0 { fill: #4c4c4c } 
		.shp1 { fill: #000000 } 
		.shp2 { fill: #808080 } 
	</style><g
     id="g56894"
     inkscape:label="Header"
     style="display:inline"
     inkscape:highlight-color="#df78bd"
     transform="translate(-243.39591,-126.23966)"
     inkscape:groupmode="layer"><path
       fill-rule="evenodd"
       clip-rule="evenodd"
       d="m 247.56367,126.23966 c -2.30268,0 -4.16775,1.86507 -4.16775,4.16775 0,1.84423 1.19302,3.40193 2.8497,3.95415 0.20839,0.0365 0.28653,-0.0886 0.28653,-0.19797 0,-0.099 -0.005,-0.42719 -0.005,-0.77624 -1.04714,0.19276 -1.31805,-0.25527 -1.4014,-0.48971 -0.0469,-0.11982 -0.25007,-0.48971 -0.4272,-0.5887 -0.14587,-0.0781 -0.35426,-0.2709 -0.005,-0.27611 0.32821,-0.005 0.56265,0.30216 0.64079,0.4272 0.3751,0.63037 0.97422,0.45324 1.21386,0.34384 0.0365,-0.27091 0.14587,-0.45325 0.2657,-0.55744 -0.92733,-0.1042 -1.89633,-0.46366 -1.89633,-2.05783 0,-0.45324 0.1615,-0.82834 0.42719,-1.12008 -0.0417,-0.1042 -0.18754,-0.53139 0.0417,-1.10446 0,0 0.34905,-0.1094 1.14613,0.4272 0.33342,-0.0938 0.68768,-0.14066 1.04194,-0.14066 0.35426,0 0.70852,0.0469 1.04194,0.14066 0.79708,-0.54181 1.14613,-0.4272 1.14613,-0.4272 0.22923,0.57307 0.0834,1.00026 0.0417,1.10446 0.26569,0.29174 0.42719,0.66163 0.42719,1.12008 0,1.59938 -0.97421,1.95363 -1.90153,2.05783 0.15108,0.13024 0.28132,0.38031 0.28132,0.77103 0,0.55744 -0.005,1.00547 -0.005,1.14613 0,0.10941 0.0781,0.23965 0.28653,0.19797 1.64626,-0.55222 2.83928,-2.11513 2.83928,-3.95415 0,-2.30268 -1.86507,-4.16775 -4.16775,-4.16775 z"
       fill="#1b1f23"
       id="path13467"
       style="display:inline;fill:#c36e85;fill-opacity:1;stroke-width:0.520969"
       inkscape:label="Github" /></g><style
     id="style58337">
		tspan { white-space:pre }
		.shp0 { fill: #4c4c4c } 
		.shp1 { fill: #000000 } 
		.shp2 { fill: #808080 } 
	</style><style
     type="text/css"
     id="style73738"><![CDATA[
	.st0{fill-rule:evenodd;clip-rule:evenodd;}
]]></style><style
     id="style24127">
		tspan { white-space:pre }
		.shp0 { fill: #4c4c4c } 
		.shp1 { fill: #000000 } 
		.shp2 { fill: #808080 } 
	</style><style
     type="text/css"
     id="style28410">
	.st0{fill:#A435F0;}
</style></svg>
