<?xml version="1.0" encoding="UTF-8" standalone="no"?>
<!-- Created with Inkscape (http://www.inkscape.org/) -->

<svg
   width="31.504061"
   height="31.504465"
   viewBox="0 0 8.3354492 8.3355562"
   version="1.1"
   id="svg5"
   xml:space="preserve"
   inkscape:version="1.2 (dc2aedaf03, 2022-05-15)"
   sodipodi:docname="portfolio9.svg"
   inkscape:export-filename="portfolio.png"
   inkscape:export-xdpi="96"
   inkscape:export-ydpi="96"
   xmlns:inkscape="http://www.inkscape.org/namespaces/inkscape"
   xmlns:sodipodi="http://sodipodi.sourceforge.net/DTD/sodipodi-0.dtd"
   xmlns="http://www.w3.org/2000/svg"
   xmlns:svg="http://www.w3.org/2000/svg"><sodipodi:namedview
     id="namedview7"
     pagecolor="#efefef"
     bordercolor="#000000"
     borderopacity="0.25"
     inkscape:showpageshadow="2"
     inkscape:pageopacity="1"
     inkscape:pagecheckerboard="0"
     inkscape:deskcolor="#d1d1d1"
     inkscape:document-units="mm"
     showgrid="false"
     inkscape:zoom="0.9983453"
     inkscape:cx="939.55468"
     inkscape:cy="315.52209"
     inkscape:window-width="1920"
     inkscape:window-height="1009"
     inkscape:window-x="1912"
     inkscape:window-y="-8"
     inkscape:window-maximized="1"
     inkscape:current-layer="g18553-1" /><defs
     id="defs2"><linearGradient
       id="linearGradient60825"
       inkscape:swatch="solid"><stop
         style="stop-color:#ffffff;stop-opacity:1;"
         offset="0"
         id="stop60823" /></linearGradient></defs><style
     id="style9077">
		tspan { white-space:pre }
		.shp0 { fill: #4c4c4c } 
		.shp1 { fill: #000000 } 
		.shp2 { fill: #808080 } 
	</style><g
     id="g56894"
     inkscape:label="Header"
     style="display:inline"
     inkscape:highlight-color="#df78bd"
     transform="translate(-257.02376,-126.24728)"
     inkscape:groupmode="layer"><path
       d="m 264.14106,127.46761 c -0.78605,-0.78647 -1.83132,-1.21992 -2.94496,-1.22033 -2.29477,0 -4.16234,1.86675 -4.16318,4.16152 -4.2e-4,0.73353 0.1913,1.44956 0.55557,2.08055 l -0.56473,2.09348 2.18097,-0.51556 c 0.60809,0.33175 1.29242,0.50638 1.9893,0.5068 h 0.002 c 2.29435,0 4.16193,-1.86716 4.16319,-4.16151 6.7e-4,-1.11239 -0.4318,-2.15808 -1.21783,-2.94495 z m -0.90816,4.42867 c -0.0866,0.24299 -0.51138,0.47721 -0.70227,0.4943 -0.19088,0.0175 -0.36968,0.0863 -1.24825,-0.26007 -1.05737,-0.41677 -1.72504,-1.50081 -1.77672,-1.56999 -0.0521,-0.0696 -0.4247,-0.5639 -0.4247,-1.07571 0,-0.5118 0.26882,-0.76354 0.36428,-0.86732 0.0954,-0.10419 0.20795,-0.13002 0.27757,-0.13002 0.0692,0 0.13877,0 0.19921,0.002 0.0742,0.003 0.15627,0.006 0.23422,0.17963 0.0925,0.20588 0.29466,0.72019 0.32051,0.77228 0.0259,0.0521 0.0433,0.11295 0.009,0.18214 -0.0347,0.0692 -0.0521,0.11253 -0.10382,0.17338 -0.052,0.0608 -0.10915,0.13545 -0.15595,0.18213 -0.0521,0.0517 -0.10632,0.10836 -0.0459,0.21214 0.0608,0.10419 0.26924,0.4447 0.57849,0.72018 0.3976,0.35427 0.73226,0.46388 0.83647,0.51639 0.10411,0.0521 0.16463,0.0433 0.22548,-0.0263 0.0607,-0.0692 0.26006,-0.30342 0.32924,-0.40761 0.0692,-0.10421 0.13878,-0.0867 0.23424,-0.0521 0.0954,0.0346 0.60682,0.28633 0.71059,0.33842 0.10412,0.0521 0.1734,0.078 0.19923,0.12129 0.0258,0.0429 0.0258,0.25131 -0.0608,0.49429 z"
       id="path18705"
       style="fill:#c36e85;fill-opacity:1;stroke-width:0.416776"
       inkscape:label="Whasapp" /></g><style
     id="style58337">
		tspan { white-space:pre }
		.shp0 { fill: #4c4c4c } 
		.shp1 { fill: #000000 } 
		.shp2 { fill: #808080 } 
	</style><style
     type="text/css"
     id="style73738"><![CDATA[
	.st0{fill-rule:evenodd;clip-rule:evenodd;}
]]></style><style
     id="style24127">
		tspan { white-space:pre }
		.shp0 { fill: #4c4c4c } 
		.shp1 { fill: #000000 } 
		.shp2 { fill: #808080 } 
	</style><style
     type="text/css"
     id="style28410">
	.st0{fill:#A435F0;}
</style></svg>
